<svg xmlns="http://www.w3.org/2000/svg" xmlns:xlink="http://www.w3.org/1999/xlink" width="0" height="0" style="display:none;">
<symbol viewBox="0 0 128 128" id="icons_Bitbucket">
<title>icons</title>
<g id="bitbucket">
<path id="bitbucket__text" d="M47.91,107a14.19,14.19,0,0,0-4.78.89v-6.65a.61.61,0,0,0-.61-.6H38.94a.6.6,0,0,0-.6.6h0v22.88a.6.6,0,0,0,.49.6,39.57,39.57,0,0,0,6.38.54c6.73,0,8.11-2.86,8.11-7.15v-5C53.32,109.08,51.5,107,47.91,107Zm-2.49,14.1a18.64,18.64,0,0,1-2.29-.11v-9a9.45,9.45,0,0,1,3.48-.88c1.36,0,1.91.53,1.91,1.84v5.25c0,1.89-.48,2.86-3.1,2.86Zm24.37-13.76H66.21a.6.6,0,0,0-.6.61v11.33a11.64,11.64,0,0,1-4.19,1.33c-.8,0-1.1-.3-1.1-1.1V108a.62.62,0,0,0-.61-.61H56.13a.62.62,0,0,0-.61.6h0v12c0,3.51,1.39,5.29,4.11,5.29a17.26,17.26,0,0,0,6.67-1.67l.26.89a.6.6,0,0,0,.58.43h2.65a.6.6,0,0,0,.6-.6V108A.61.61,0,0,0,69.79,107.37ZM84.2,121.24a.6.6,0,0,0-.26-.41.58.58,0,0,0-.48-.09,14.41,14.41,0,0,1-3.11.36c-2.27,0-2.92-.58-2.92-2.58V113.8c0-2,.65-2.58,2.92-2.58a16,16,0,0,1,3.11.36.62.62,0,0,0,.73-.45.43.43,0,0,1,0,0l.42-2.84a.59.59,0,0,0-.42-.66,15.23,15.23,0,0,0-4-.55c-5.41,0-7.62,2-7.62,6.8v4.66c0,4.83,2.21,6.8,7.62,6.8a15.14,15.14,0,0,0,4-.54.6.6,0,0,0,.42-.67l-.42-2.84ZM108.86,107c-4.8,0-7.34,2.39-7.34,6.91v4.51c0,4.67,2.38,6.84,7.48,6.84a19,19,0,0,0,6.07-1,.62.62,0,0,0,.39-.7l-.53-2.56a.6.6,0,0,0-.72-.46h0a17.25,17.25,0,0,1-4.79.7c-2.6,0-3.07-.85-3.07-2.62V118h8.89a.59.59,0,0,0,.6-.59h0v-3.3c0-4.85-2.2-7.11-6.94-7.11Zm-2.55,7.06v-.58c0-1.68.83-2.47,2.58-2.47,1.94,0,2.33.95,2.33,2.47v.58Zm-83.54-6.72H19.19a.6.6,0,0,0-.6.6v16.36a.6.6,0,0,0,.6.61h3.58a.61.61,0,0,0,.61-.61V108a.6.6,0,0,0-.6-.6Zm0-6.7H19.19a.6.6,0,0,0-.6.6v3.08a.6.6,0,0,0,.6.61h3.58a.6.6,0,0,0,.61-.59h0v-3.09a.6.6,0,0,0-.6-.6Zm-9,11.79a3.8,3.8,0,0,0,2.13-3.71v-2.41c0-3.52-2.12-5.23-6.46-5.23H.6a.6.6,0,0,0-.6.6v22.62a.6.6,0,0,0,.6.6h9.46c4.22,0,6.64-2,6.64-5.61v-2.49a4.37,4.37,0,0,0-2.94-4.37Zm-8.83-7.19h4c1.8,0,2.05.78,2.05,1.62V109c0,1.34-.63,1.91-2.09,1.91H8a.61.61,0,0,0-.61.6h0v2.84a.61.61,0,0,0,.61.61H9.57c1.56,0,2.19.6,2.19,2.08v1.75c0,1.51-.65,2-2.58,2H4.93V105.27Zm31.28,16.19A.61.61,0,0,0,36,121a.62.62,0,0,0-.48-.08,7.35,7.35,0,0,1-1.71.24c-.88,0-1.28-.38-1.28-1.24v-8.67H36a.6.6,0,0,0,.6-.61V108a.6.6,0,0,0-.6-.61H32.48v-4.16a.61.61,0,0,0-.61-.61h-.08l-3.58.49a.61.61,0,0,0-.52.61v3.66h-2a.61.61,0,0,0-.61.61v2.7a.61.61,0,0,0,.61.61h2v9.23c0,3.17,1.66,4.77,4.95,4.77a12.86,12.86,0,0,0,3.56-.57.6.6,0,0,0,.4-.67l-.39-2.59Zm91.39,0a.59.59,0,0,0-.68-.51h-.06a7.35,7.35,0,0,1-1.71.24c-.88,0-1.28-.38-1.28-1.24v-8.67h3.48a.6.6,0,0,0,.6-.6h0V108a.61.61,0,0,0-.6-.61h-3.48V103.2a.6.6,0,0,0-.21-.45.57.57,0,0,0-.48-.14l-3.58.49a.6.6,0,0,0-.52.6v3.67h-2a.61.61,0,0,0-.61.61v2.7a.62.62,0,0,0,.61.61h2v9.23c0,3.16,1.66,4.77,5,4.77a12.83,12.83,0,0,0,3.56-.58.59.59,0,0,0,.4-.66l-.39-2.59ZM101,123.93,96.18,116l4.62-7.78a.61.61,0,0,0-.21-.83.65.65,0,0,0-.31-.08h-4a.6.6,0,0,0-.52.3l-4.39,7.61v-14a.6.6,0,0,0-.6-.61H87.23a.61.61,0,0,0-.61.61v23a.61.61,0,0,0,.61.61h3.58a.6.6,0,0,0,.6-.61v-7.55l4.67,7.82a.62.62,0,0,0,.52.3h3.89a.62.62,0,0,0,.6-.62.67.67,0,0,0-.12-.36Z" style="fill:#205081"/>
<g id="bitbucket__icon">
<path d="M64,2.71c-22.08,0-39.76,5.89-39.76,13.2,0,1.92,4.79,29.54,6.69,40.49C31.78,61.31,44.44,68.52,64,68.52v0c20.07,0,32.3-7.21,33.15-12.12,1.9-10.95,6.66-38.57,6.66-40.49C103.81,8.6,86.08,2.71,64,2.71Zm.06,56.93A12.65,12.65,0,1,1,76.71,47,12.65,12.65,0,0,1,64.06,59.64Zm0-39.65C50,20,38.58,17.52,38.58,14.53S50,9.12,64.07,9.14s25.48,2.47,25.48,5.47S78.13,20,64.06,20Z" style="fill:#205081"/>
<path d="M92.66,67.38a1.87,1.87,0,0,0-1.09.43s-9.8,7.76-27.51,7.76-27.51-7.76-27.51-7.76a1.83,1.83,0,0,0-1.09-.43,1.4,1.4,0,0,0-1.4,1.56,1.84,1.84,0,0,0,0,.33c1.52,8.14,2.63,13.93,2.83,14.81,1.32,6,13,10.51,27.14,10.51h0c14.11,0,25.82-4.53,27.15-10.52.2-.87,1.31-6.65,2.83-14.79a2,2,0,0,0,0-.34,1.4,1.4,0,0,0-1.41-1.56Z" style="fill:#205081"/>
<circle cx="64.05" cy="46.99" r="6.34" style="fill:#205081"/>
</g>
</g>
</symbol>
<symbol viewBox="0 0 128 128" id="icons_CSS">
<title>icons</title>
<g id="css">
<path d="M36.62,0C42.23,0,47.84,0,53.45,0c0,1.76,0,3.51,0,5.27-3.88,0-7.77,0-11.65,0,0,2.55-.08,5.1-.05,7.65,3.9,0,7.8.06,11.7,0,0,1.45,0,2.89,0,4.34-5.59,0-11.18,0-16.78,0C36.64,11.55,36.65,5.8,36.62,0Z"/>
<path d="M55.45,0c5.68,0,11.36,0,17,0,0,1.66,0,3.31,0,5q-6.2,0-12.4.06,0,1,0,1.95c4.13.07,8.25.08,12.38.1,0,3.4,0,6.8,0,10.2q-8.52,0-17,0c0-1.38,0-2.75,0-4.12,3.94,0,7.88,0,11.82,0,0-.88,0-1.77,0-2.65-4,0-7.92,0-11.87,0C55.43,7,55.43,3.52,55.45,0Z"/>
<path d="M74.39.05h17c0,1.67,0,3.33,0,5-4.15,0-8.3,0-12.45,0q0,1,.06,2c4.13,0,8.25,0,12.38.07,0,3.39.06,6.77,0,10.16q-8.52,0-17,0c0-1.37,0-2.74,0-4.11,3.93,0,7.86,0,11.8,0,0-.89,0-1.78,0-2.66-4,0-7.9,0-11.84,0Q74.34,5.32,74.39.05Z"/>
<path d="M18.36,24.48q45.65,0,91.28,0c-1.67,18.93-3.32,37.85-5.06,56.77q-1.56,18.14-3.23,36.27c-6.5,1.72-12.93,3.68-19.42,5.41C76,124.68,70,126.26,64,128h-.17c-5.68-1.69-11.41-3.17-17.09-4.86-6.7-1.81-13.34-3.82-20-5.62-.87-9.06-1.66-18.12-2.44-27.18-1.47-16.75-3.06-33.49-4.47-50.23-.49-5-.84-10.1-1.42-15.13v-.5M64.14,32c-.06,3.63,0,7.27-.06,10.9-10.44,0-20.88,0-31.32,0,.18,3.53.65,7,1.14,10.54,9.71.36,19.44,0,29.15.28-8.5,3.81-17.1,7.4-25.64,11.13a10.78,10.78,0,0,0-2.16,1c.07,3.87.69,7.73,1,11.59,5.17,0,10.35-.1,15.53-.11,4.14,0,8.3.07,12.44,0-.19,6.37.07,12.75-.13,19.12-2.79-.41-5.55-1-8.33-1.53-2.19-.47-4.44-.72-6.6-1.35-.31-3.06-.52-6.13-.79-9.19a7,7,0,0,0-1.94-.18c-3.13,0-6.27,0-9.41,0a175.72,175.72,0,0,0,1.74,17.59c3.09.81,6.19,1.6,9.28,2.44,4.73,1.29,9.52,2.36,14.26,3.63a5.88,5.88,0,0,0,1.71.28c.32,3.87.07,7.76.13,11.64a22.32,22.32,0,0,0,3.23-.77c9-2.43,17.92-4.92,26.89-7.38.44-3.52.65-7.07,1-10.61q1.4-16.11,2.85-32.22c1.14-12.29,2.13-24.59,3.29-36.88C89,31.94,76.55,31.91,64.14,32Z" style="fill:#0170ba"/>
<path d="M64.14,32c12.41,0,24.82,0,37.24,0-1.16,12.29-2.15,24.59-3.29,36.88Q96.62,84.92,95.24,101c-.36,3.54-.57,7.09-1,10.61-9,2.46-17.93,5-26.89,7.38a22.32,22.32,0,0,1-3.23.77c-.06-3.88.19-7.77-.13-11.64l.33-.07c8.34-2.09,16.62-4.4,25-6.57,1-11.8,2.22-23.6,3-35.43-7.08,0-14.16,0-21.24,0-1,0-2.06,0-3.09-.07,3.81-2,7.82-3.52,11.73-5.27,3.75-1.7,7.55-3.29,11.32-5a11,11,0,0,0,2.13-1.11,16.83,16.83,0,0,0,.34-2.83c.22-3,.6-6,.75-9-10-.08-20,0-30.08-.07C64.19,39.22,64.08,35.58,64.14,32Z" style="fill:#29a9df"/>
<path d="M64.19,77.31c4.84-.09,9.69,0,14.53,0-.27,5-.68,9.89-.94,14.84-3,1-6,1.79-9,2.69a35.74,35.74,0,0,0-4.75,1.58C64.26,90.06,64,83.68,64.19,77.31Z" style="fill:#29a9df"/>
<g id="class-hide">
<path d="M32.76,42.85c10.44,0,20.88,0,31.32,0,.14,11.49,0,23,.11,34.46-4.14.09-8.3,0-12.44,0-5.18,0-10.36.1-15.53.11-.28-3.86-.9-7.72-1-11.59a10.78,10.78,0,0,1,2.16-1C46,61.07,54.55,57.48,63.05,53.67c-9.71-.3-19.44.08-29.15-.28C33.41,49.89,32.94,46.38,32.76,42.85Z" style="fill:#cfcfcf"/>
<path d="M37,84.21c3.14,0,6.28,0,9.41,0a7,7,0,0,1,1.94.18c.27,3.06.48,6.13.79,9.19,2.16.63,4.41.88,6.6,1.35,2.78.5,5.54,1.12,8.33,1.53.27,3.88-.2,7.79.25,11.65l-.33.07a5.88,5.88,0,0,1-1.71-.28c-4.74-1.27-9.53-2.34-14.26-3.63-3.09-.84-6.19-1.63-9.28-2.44A175.72,175.72,0,0,1,37,84.21Z" style="fill:#cfcfcf"/>
</g>
<g id="class-hide-2" data-name="class-hide">
<path d="M64.08,42.85c10,.06,20,0,30.08.07-.15,3-.53,6-.75,9a16.83,16.83,0,0,1-.34,2.83,11,11,0,0,1-2.13,1.11c-3.77,1.67-7.57,3.26-11.32,5-3.91,1.75-7.92,3.31-11.73,5.27,1,.07,2.06.08,3.09.07,7.08,0,14.16,0,21.24,0-.74,11.83-1.91,23.63-3,35.43-8.33,2.17-16.61,4.48-25,6.57-.45-3.86,0-7.77-.25-11.65a35.74,35.74,0,0,1,4.75-1.58c3-.9,6-1.72,9-2.69.26-5,.67-9.89.94-14.84-4.84,0-9.69-.1-14.53,0C64,65.82,64.22,54.34,64.08,42.85Z" style="fill:#fff"/>
</g>
</g>
</symbol>
<symbol viewBox="0 0 128 128" id="icons_DNN">
<title>icons</title>
<g id="dnn">
<g id="DNN-2" data-name="DNN">
<path d="M128,76.06h-6.59c0-.33-.06-.64-.06-.94V66.38c0-2.73-1.41-4.15-4.11-4.15h-3V76h-6.7V55.7c4,0,8.09-.39,12,.1,4.51.55,7.23,3.59,8.22,8.07,0,.09.11.16.17.24Z" style="fill:#492b2d"/>
<path d="M60.76,55.63c4,0,8-.3,11.95.07a10,10,0,0,1,8.68,10.23A10.14,10.14,0,0,1,71.9,76c-3.69.18-7.38,0-11.14,0Zm6.68,13.85c1.27,0,2.5,0,3.73,0a3.7,3.7,0,0,0,3.67-3.42,3.59,3.59,0,0,0-3-3.88,35.27,35.27,0,0,0-4.37,0Z" style="fill:#492b2d"/>
<path d="M84,76V55.61c3.92,0,7.81-.24,11.65.06,4.85.38,8.61,4.64,8.82,9.69.15,3.51,0,7,0,10.62H97.74V66.05a3.53,3.53,0,0,0-3.86-3.82H90.73V76Z" style="fill:#492b2d"/>
<path d="M49,55.55a23.76,23.76,0,0,1,.78,14.32,25.18,25.18,0,0,1-21.53,19.2,2.24,2.24,0,0,0-.54.21H16.85c0-.78,0-1.56,0-2.33q0-7.24,0-14.47a.44.44,0,0,0,.08-.11c2.74,0,5.48.1,8.21,0a8.41,8.41,0,0,0,8.58-8.58c.1-2.73,0-5.47,0-8.2l.12-.09Z" style="fill:#01a4e3"/>
<path d="M16.78,72.48q0,7.23,0,14.47c0,.77,0,1.55,0,2.33H0Q0,80.84,0,72.4H10.92C12.87,72.42,14.83,72.46,16.78,72.48Z" style="fill:#492b2d"/>
<path d="M16.78,72.48c-2,0-3.91-.06-5.86-.07H0c0-2.31,0-4.62,0-6.93V38.79c.34,0,.61-.06.88-.06,8.45,0,16.91,0,25.36,0a19.29,19.29,0,0,1,7.45,1.47c0,2.87,0,5.74,0,8.6,0,2.23.05,4.46.07,6.69l-.12.09H16.86V72.37A.44.44,0,0,1,16.78,72.48Z" style="fill:#ed3a43"/>
<path d="M33.76,55.5c0-2.23-.06-4.46-.07-6.69,0-2.86,0-5.73,0-8.6a23.57,23.57,0,0,1,10.87,7.46A22.42,22.42,0,0,1,49,55.55Z" style="fill:#492b2d"/>
</g>
</g>
</symbol>
<symbol viewBox="0 0 128 128" id="icons_Docker">
<title>icons</title>
<g id="docker">
<path d="M19.3,97.37V89.14a1.79,1.79,0,0,1,1.83-1.93h.3a1.85,1.85,0,0,1,1.83,1.93v17.27a10.77,10.77,0,0,1-5.69,9.65,10.58,10.58,0,0,1-5.48,1.53h-.81a10.77,10.77,0,0,1-9.65-5.69A10.64,10.64,0,0,1,.1,106.41v-.81A10.77,10.77,0,0,1,5.79,96a10.63,10.63,0,0,1,5.49-1.52h.81A11.16,11.16,0,0,1,19.3,97.37ZM4,106a7.54,7.54,0,0,0,4.17,6.8,7,7,0,0,0,3.45.92,7.52,7.52,0,0,0,6.71-4A7.57,7.57,0,0,0,16,99.71a7.48,7.48,0,0,0-11.28,3.15A7.18,7.18,0,0,0,4,106ZM36.67,94.53h.51a10.89,10.89,0,0,1,10.06,6.09,9.78,9.78,0,0,1,1.32,5.08v.81a10.8,10.8,0,0,1-5.69,9.66,10.73,10.73,0,0,1-5.49,1.52h-.81A10.78,10.78,0,0,1,26.92,112a10.63,10.63,0,0,1-1.52-5.49v-.81a11,11,0,0,1,5.69-9.65A10,10,0,0,1,36.67,94.53ZM29.36,106a7.83,7.83,0,0,0,7.82,7.62,7.52,7.52,0,0,0,6.6-4,7.23,7.23,0,0,0,1-3.86,7.5,7.5,0,0,0-3.56-6.4,7.56,7.56,0,0,0-11.07,3.36A6.65,6.65,0,0,0,29.36,106Zm35.35-7.32a6.41,6.41,0,0,0-2.34-.4c-3.25-.11-5.58,1.72-7,4.57a6.77,6.77,0,0,0-.72,3.15,7.51,7.51,0,0,0,4.68,7.11,8.88,8.88,0,0,0,3.65.61,8.64,8.64,0,0,0,3.46-1.12l.2-.1h.81A1.67,1.67,0,0,1,69,114.23v.41c0,2.34-4.37,3-6,3-5.79.41-10.15-2.74-11.78-8.33a9.57,9.57,0,0,1-.41-3v-.81A11,11,0,0,1,56.48,96,10.63,10.63,0,0,1,62,94.43h.81a10.38,10.38,0,0,1,5.69,1.72l.1.1.1.11a1.66,1.66,0,0,1,.31,1v.41c0,1-.71,1.52-1.63,1.72h-.3a10.33,10.33,0,0,1-2.34-.81Zm12.6,2.64c1.52-1.52,3-3,4.57-4.47.41-.4,2-2.13,2.64-2.13h.81a1.67,1.67,0,0,1,1.53,1.73v.4a3.08,3.08,0,0,1-1.22,1.83l-2.74,2.74-4.68,4.78c2,2,4.07,4.06,6,6.09L85.84,114c.2.2.51.41.61.71a1.69,1.69,0,0,1,.31.92v.51A1.85,1.85,0,0,1,85,117.79h-.31c-.61,0-1.32-.71-1.82-1.12A31.43,31.43,0,0,1,80.25,114l-2.94-2.94v4.67a1.79,1.79,0,0,1-1.83,1.93h-.31a1.84,1.84,0,0,1-1.82-1.93V89.24a1.79,1.79,0,0,1,1.82-1.93h.31a1.79,1.79,0,0,1,1.83,1.93Zm48.35-6.7h.41A1.86,1.86,0,0,1,128,96.56c0,1.62-1.52,2-2.84,2a6.61,6.61,0,0,0-4.58,2.24,7.34,7.34,0,0,0-2.13,5.48v9.35a1.79,1.79,0,0,1-1.83,1.93h-.3a1.85,1.85,0,0,1-1.83-1.93v-10a10.85,10.85,0,0,1,5-9.14A11.16,11.16,0,0,1,125.66,94.63ZM98.13,113.22a9.42,9.42,0,0,0,4.47.2,10.44,10.44,0,0,1,3.36-1h.2a2.13,2.13,0,0,1,1,.91,1.87,1.87,0,0,1-.71,2.64l-.3.21c-3.66,2.13-7.62,1.82-11.28-.21a10.36,10.36,0,0,1-4.06-4.06l-.2-.41a11,11,0,0,1,.61-12.29,10.56,10.56,0,0,1,3.55-3.15l.51-.3c3.45-2,7.21-1.83,10.77-.11a10.7,10.7,0,0,1,4.57,4.17l.2.3c.81,1.32-.2,2.54-1.22,3.36-1.22.91-2.44,2-3.55,3Q101.94,109.87,98.13,113.22Zm-3.35-2.34,8.64-7.41c1-.82,2-1.73,3-2.64a7.87,7.87,0,0,0-3.15-2.14,7.35,7.35,0,0,0-6.5.61,7.48,7.48,0,0,0-3.76,7.11,7.18,7.18,0,0,0,1,3.46,3.67,3.67,0,0,0,.71,1M73.85,33.17H85.33V44.85h5.79a26.52,26.52,0,0,0,7.93-1.32,21.83,21.83,0,0,0,3.86-1.73,13.87,13.87,0,0,1-2.64-7.41c-.31-3.56.4-8.23,2.84-11L104.33,22l1.42,1.12c3.66,2.95,6.61,6.91,7.22,11.58a17.27,17.27,0,0,1,13.3,1.22l1.53.92L127,38.45c-3.25,6.3-10,8.33-16.66,7.92-9.95,24.69-31.49,36.37-57.7,36.37-13.51,0-25.9-5.08-33-17.06l-.11-.21-1-2.13a33,33,0,0,1-2.64-16.86l.2-1.73H25.8V33.17H37.28V21.69H60.14V10.21H73.85Z" style="fill:#3a4d54;fill-rule:evenodd"/>
<path d="M110.93,37.43c.82-6-3.65-10.66-6.5-12.9-3.15,3.66-3.66,13.41,1.32,17.48-2.84,2.43-8.63,4.77-14.73,4.77H17.68a30.66,30.66,0,0,0,3,17.07l.82,1.52c.5.92,1.11,1.73,1.72,2.64a77.8,77.8,0,0,0,8.33.21,43.76,43.76,0,0,0,12.19-1.73.87.87,0,1,1,.61,1.62c-.4.11-.81.31-1.32.41a37.57,37.57,0,0,1-8.43,1.32H34c-1.32.1-2.74.1-4.26.1s-3.15,0-5-.1c6.09,6.91,15.64,11,27.63,11,25.4,0,46.93-11.27,56.38-36.47,6.81.71,13.31-1,16.25-6.8C120.48,34.9,114.39,35.71,110.93,37.43Z" style="fill:#00aada"/>
<path d="M110.93,37.43c.82-6-3.65-10.66-6.5-12.9-3.15,3.66-3.66,13.41,1.32,17.48-2.84,2.43-8.63,4.77-14.73,4.77H21.94c-.3,9.65,3.25,17,9.65,21.33a43.43,43.43,0,0,0,12.19-1.72A.87.87,0,1,1,44.39,68c-.4.1-.81.31-1.32.41a39.1,39.1,0,0,1-8.63,1.42l-.1-.1c8.63,4.47,21.13,4.37,35.55-1.12,16-6.19,31.09-18,41.55-31.39-.2.1-.3.2-.51.2Z" style="fill:#28b8eb"/>
<path d="M17.78,54.4a27.7,27.7,0,0,0,2.94,9.45l.82,1.52c.5.92,1.11,1.73,1.72,2.64a77.8,77.8,0,0,0,8.33.21,43.76,43.76,0,0,0,12.19-1.73.87.87,0,1,1,.61,1.62c-.4.11-.81.31-1.32.41a39.1,39.1,0,0,1-8.63,1.42H34c-1.32.1-2.74.1-4.16.1-1.63,0-3.25,0-5-.1,6.09,6.91,15.74,11,27.73,11,21.74,0,40.64-8.22,51.61-26.41H17.78Z" style="fill:#028bb8"/>
<path d="M22.65,54.4a21.92,21.92,0,0,0,8.94,13.71,43.43,43.43,0,0,0,12.19-1.72A.87.87,0,1,1,44.39,68c-.4.1-.81.31-1.32.41a39.07,39.07,0,0,1-8.73,1.42c8.63,4.47,21.13,4.37,35.45-1.12A95.18,95.18,0,0,0,94.37,54.4Z" style="fill:#019bc6"/>
<path d="M27.63,35h10V45h-10Zm.81.91h.82v8.23h-.82Zm1.53,0h.81v8.23H30Zm1.52,0h.81v8.23h-.81Zm1.42,0h.82v8.23h-.82Zm1.53,0h.81v8.23h-.81Zm1.52,0h.81v8.23H36Zm3.15-12.29h10v9.85h-10Zm.81.81h.82v8.23h-.82Zm1.53,0h.81v8.23h-.81Zm1.42,0h.81v8.23h-.81Zm1.52,0h.82v8.23h-.82Zm1.53,0h.81v8.23h-.81Zm1.52,0h.81v8.23h-.81Z" style="fill:#00acd3;fill-rule:evenodd"/>
<path d="M39.11,35h10V45h-10Zm.81.91h.82v8.23h-.82Zm1.53,0h.81v8.23h-.81Zm1.42,0h.81v8.23h-.81Zm1.52,0h.82v8.23h-.82Zm1.53,0h.81v8.23h-.81Zm1.52,0h.81v8.23h-.81Z" style="fill:#23c2ee;fill-rule:evenodd"/>
<path d="M50.59,35h10V45h-10Zm.81.91h.82v8.23H51.4Zm1.43,0h.81v8.23h-.81Zm1.52,0h.81v8.23h-.81Zm1.52,0h.82v8.23h-.82Zm1.53,0h.81v8.23H57.4Zm1.42,0h.81v8.23h-.81Z" style="fill:#00acd3;fill-rule:evenodd"/>
<path d="M50.59,23.62h10v9.85h-10Zm.81.81h.82v8.23H51.4Zm1.43,0h.81v8.23h-.81Zm1.52,0h.81v8.23h-.81Zm1.52,0h.82v8.23h-.82Zm1.53,0h.81v8.23H57.4Zm1.42,0h.81v8.23h-.81ZM62,35h10V45H62Zm.91.91h.82v8.23h-.82Zm1.42,0h.82v8.23H64.3Zm1.53,0h.81v8.23h-.81Zm1.52,0h.82v8.23h-.82Zm1.42,0h.82v8.23h-.82Zm1.53,0h.81v8.23H70.3Z" style="fill:#23c2ee;fill-rule:evenodd"/>
<path d="M62,23.62h10v9.85H62Zm.91.81h.82v8.23h-.82Zm1.42,0h.82v8.23H64.3Zm1.53,0h.81v8.23h-.81Zm1.52,0h.82v8.23h-.82Zm1.42,0h.82v8.23h-.82Zm1.53,0h.81v8.23H70.3Z" style="fill:#00acd3;fill-rule:evenodd"/>
<path d="M62,12.14h10v10H62Zm.91.81h.82v8.33h-.82Zm1.42,0h.82v8.33H64.3Zm1.53,0h.81v8.33h-.81Zm1.52,0h.82v8.33h-.82Zm1.42,0h.82v8.33h-.82Zm1.53,0h.81v8.33H70.3Z" style="fill:#23c2ee;fill-rule:evenodd"/>
<path d="M73.45,35h10V45h-10Zm.81.91h.81v8.23h-.81Zm1.52,0h.82v8.23h-.82Zm1.53,0h.81v8.23h-.81Zm1.42,0h.81v8.23h-.81Zm1.52,0h.82v8.23h-.82Zm1.53,0h.81v8.23h-.81Z" style="fill:#00acd3;fill-rule:evenodd"/>
<path d="M48.36,61.1a2.75,2.75,0,1,1-2.75,2.75,2.87,2.87,0,0,1,2.75-2.75" style="fill:#d4eef1;fill-rule:evenodd"/>
<path d="M48.36,61.82a1.77,1.77,0,0,1,.71.1.83.83,0,0,0-.41.71.88.88,0,0,0,.81.81.83.83,0,0,0,.71-.41,1.65,1.65,0,0,1,.11.72,1.93,1.93,0,0,1-3.86,0,2,2,0,0,1,1.93-1.93M0,55.42H127.29c-2.74-.72-8.74-1.63-7.82-5.29-5.08,5.79-17.17,4.07-20.32,1.22-3.45,5-23.37,3-24.69-.81-4.26,5.08-17.57,5.08-21.84,0-1.42,3.86-21.33,5.79-24.68.81C24.89,54.2,12.7,55.92,7.62,50.13,8.74,53.69,2.74,54.7,0,55.42" style="fill:#3a4d54;fill-rule:evenodd"/>
<path d="M55.67,80.81c-6.81-3.25-10.46-7.62-12.6-12.39a43.09,43.09,0,0,1-9,1.42c-1.32.1-2.74.1-4.16.1-1.73,0-3.46,0-5.29-.1,6.2,6.2,13.92,11,28,11.07C53.64,80.81,54.65,80.81,55.67,80.81Z" style="fill:#bfdbe0"/>
<path d="M45.61,72.79a31.19,31.19,0,0,1-2.54-4.37,43.09,43.09,0,0,1-9,1.42C36.47,71.16,39.92,72.38,45.61,72.79Z" style="fill:#d4eef1"/>
</g>
</symbol>
<symbol viewBox="0 0 128 128" id="icons_Drupal">
<title>icons</title>
<g id="drupal">
<path d="M54.81,112c0,2.84-1.24,5.15-4.11,5.15s-4.11-2.31-4.11-5.15v-9.71H41.35V112c0,5.62,3.64,10.16,9.33,10.16s9.37-4.54,9.37-10.16v-9.73H54.81Z" style="fill:#2ba9e0"/>
<rect x="107.38" y="96.34" width="5.22" height="25.32" style="fill:#2ba9e0"/>
<polygon points="116.46 97.27 117.95 97.27 117.95 101.28 119.03 101.28 119.03 97.27 120.53 97.27 120.53 96.36 116.46 96.36 116.46 97.27" style="fill:#2ba9e0"/>
<polygon points="124.91 96.36 123.82 99.75 123.8 99.75 122.65 96.36 121.11 96.36 121.11 101.28 122.13 101.28 122.13 97.83 122.13 97.83 123.35 101.28 124.21 101.28 125.4 97.81 125.43 97.81 125.43 101.28 126.44 101.28 126.44 96.36 124.91 96.36" style="fill:#2ba9e0"/>
<path d="M29.63,105.69c-.07.11-.07.18-.27.18s-.18-.18-.18-.18l-.57-3.39H23.94v19.33h5.24V111.18A5.73,5.73,0,0,1,36,107.27a7.26,7.26,0,0,1,3.25,1.49v-5.89a7.89,7.89,0,0,0-2.19-.82C32.59,101,29.74,105.46,29.63,105.69Z" style="fill:#2ba9e0"/>
<path d="M72.24,101.89A10.29,10.29,0,0,0,61.9,112.12V128h5.26v-9.55a.2.2,0,0,1,.2-.21c.16,0,.21.12.25.21A6.25,6.25,0,0,0,75,122a10.23,10.23,0,0,0-2.8-20.1Zm0,15.43a5.17,5.17,0,1,1,5.24-5.17A5.22,5.22,0,0,1,72.24,117.32Z" style="fill:#2ba9e0"/>
<path d="M94.92,101.89A10.22,10.22,0,0,0,92.12,122a6.2,6.2,0,0,0,7.43-3.55c0-.09.09-.2.24-.2s.21.2.21.2v3.21h5.26v-9.51A10.29,10.29,0,0,0,94.92,101.89Zm0,15.43a5.17,5.17,0,1,1,5.24-5.17A5.22,5.22,0,0,1,94.92,117.32Z" style="fill:#2ba9e0"/>
<path d="M8,96.34H1.56v25.29h6c7.84,0,14.07-1.51,14.07-12.64S15.7,96.34,8,96.34Zm1,20.93-2.17,0V100.72h2.1c4.83,0,7.36.68,7.36,8.27C16.3,116.89,13.44,117.27,9,117.27Z" style="fill:#2ba9e0"/>
<path d="M53.68,46.7a11.9,11.9,0,1,0,11.9,11.9A11.9,11.9,0,0,0,53.68,46.7Z" style="fill:#2ba9e0"/>
<path d="M68.49,44.42a20.52,20.52,0,0,1-3.09,31A34.44,34.44,0,0,0,87,56.07c5-12.37.34-21.68-7.52-30.12a15.12,15.12,0,0,1,.38,3.39A15.7,15.7,0,0,1,68.49,44.42Z" style="fill:#2ba9e0"/>
<path d="M55,29.36a9.12,9.12,0,1,0,9.13-9.1A9.11,9.11,0,0,0,55,29.36Z" style="fill:#2ba9e0"/>
<path d="M38,71.81A20.5,20.5,0,0,1,51.24,38.26,15.66,15.66,0,0,1,64.16,13.69a16,16,0,0,1,2.1.13C61.13,9.39,56,4.9,52,0,54,21.5,32.38,13.69,24.37,33.51,19,46.79,23.85,63.21,38,71.81Z" style="fill:#2ba9e0"/>
</g>
</symbol>
<symbol viewBox="0 0 128 128" id="icons_Git">
<title>icons</title>
<g id="git">
<path d="M76.71,55.47c-2.81,0-4.89,1.37-4.89,4.69,0,2.5,1.37,4.23,4.74,4.23,2.85,0,4.79-1.68,4.79-4.33C81.35,57.05,79.62,55.47,76.71,55.47ZM71.1,78.88a4.56,4.56,0,0,0-1.33,2.71c0,2,2.6,2.65,6.18,2.65,3,0,7-.21,7-3,0-1.63-1.94-1.73-4.39-1.89ZM86.2,55.62a8.07,8.07,0,0,1,1.89,5.15c0,5.66-4.44,9-10.87,9a16,16,0,0,1-4-.46L71.51,72l5,.3c8.82.56,14,.82,14,7.6,0,5.87-5.15,9.18-14,9.18-9.24,0-12.76-2.35-12.76-6.37,0-2.3,1-3.52,2.81-5.21a3.39,3.39,0,0,1-2.25-3.36A4.62,4.62,0,0,1,65.79,71c.92-1,1.94-1.94,3.17-3.07a8.13,8.13,0,0,1-4.39-7.65c0-5.86,3.88-9.89,11.68-9.89a17.46,17.46,0,0,1,4.7.51h9.94v4.33Zm13.67-9.27c-2.91,0-4.59-1.68-4.59-4.59s1.68-4.49,4.59-4.49,4.64,1.58,4.64,4.49S102.83,46.35,99.87,46.35ZM93.29,77V73l2.6-.36c.71-.1.81-.25.81-1v-15c0-.56-.15-.92-.66-1.07l-2.75-1,.56-4.13h10.56V71.6c0,.82,0,.92.81,1l2.61.36v4ZM128,75a20.44,20.44,0,0,1-8.32,2c-6.07,0-8.36-2.45-8.36-8.22V55.49c0-.3,0-.51-.41-.51h-3.57V50.44c4.49-.51,6.27-2.76,6.83-8.32H119v7.25c0,.36,0,.51.41.51h7.19V55H119V67.17c0,3,.72,4.18,3.47,4.18a12.09,12.09,0,0,0,4.13-.81Z" style="fill:#31251c"/>
<path d="M52.41,61.64,29.09,38.32a3.42,3.42,0,0,0-4.86,0l-4.85,4.84,6.14,6.15a4.08,4.08,0,0,1,5.18,5.2l5.92,5.93a4.09,4.09,0,1,1-1.56,6.76,4.11,4.11,0,0,1-.89-4.46l-5.52-5.52V71.75a4.24,4.24,0,0,1,1.08.78,4.09,4.09,0,1,1-5.79,0,4,4,0,0,1,1.34-.9V57a4,4,0,0,1-1.34-.9,4.09,4.09,0,0,1-.88-4.47L17,45.54l-16,16A3.43,3.43,0,0,0,1,66.4L24.33,89.72a3.43,3.43,0,0,0,4.87,0L52.41,66.51A3.43,3.43,0,0,0,52.41,61.64Z" style="fill:#f34f29"/>
<path d="M0,37.27H128V90.73H0Z" style="fill:none"/>
</g>
</symbol>
<symbol viewBox="0 0 128 128" id="icons_GitHub">
<title>icons</title>
<g id="github" fill="#323131">
<path d="M64,.43A42.77,42.77,0,0,0,50.48,83.77c2.14.4,2.92-.92,2.92-2s0-4.39-.06-8c-11.89,2.59-14.4-5-14.4-5-1.95-4.94-4.75-6.26-4.75-6.26-3.88-2.65.29-2.6.29-2.6,4.3.3,6.56,4.41,6.56,4.41,3.81,6.54,10,4.65,12.44,3.55a9.13,9.13,0,0,1,2.72-5.72C46.7,61,36.71,57.35,36.71,41a16.54,16.54,0,0,1,4.41-11.48c-.45-1.08-1.91-5.43.41-11.32,0,0,3.59-1.15,11.76,4.39A40.69,40.69,0,0,1,64,21.11a41.16,41.16,0,0,1,10.71,1.44c8.16-5.53,11.75-4.39,11.75-4.39,2.33,5.89.86,10.24.42,11.32A16.52,16.52,0,0,1,91.28,41c0,16.42-10,20-19.53,21.1,1.54,1.33,2.9,3.93,2.9,7.92,0,5.72,0,10.33,0,11.73,0,1.14.77,2.47,2.93,2.05A42.77,42.77,0,0,0,64,.43Z" />
<path d="M37.43,61.83c-.09.21-.43.28-.73.13s-.48-.43-.38-.64.42-.28.73-.14.49.44.39.65Zm1.74,1.93c-.21.19-.61.1-.88-.2a.64.64,0,0,1-.12-.88c.21-.19.59-.1.87.19s.34.7.13.89Zm1.68,2.46c-.26.19-.69,0-1-.36s-.27-.84,0-1,.69,0,1,.36.26.84,0,1Zm2.31,2.38c-.23.26-.73.19-1.1-.16a.83.83,0,0,1-.24-1.09c.24-.26.74-.19,1.11.16s.48.84.23,1.09ZM46.35,70c-.1.33-.59.48-1.07.34s-.8-.54-.7-.88.58-.49,1.07-.34.8.53.7.88Zm3.5.25c0,.35-.4.65-.91.65s-.92-.27-.93-.62.4-.64.91-.65S49.85,69.89,49.85,70.24Zm3.25-.55c.06.34-.29.7-.79.79s-1-.12-1-.46.3-.71.79-.8,1,.12,1,.47Z" />
<path d="M24.65,107.77H13.9a.5.5,0,0,0-.5.5v5.26a.5.5,0,0,0,.5.51h4.19v6.53a12.75,12.75,0,0,1-3.55.32c-3.07,0-7.36-1.12-7.36-10.56s4.47-10.69,8.67-10.69a16.91,16.91,0,0,1,6.19,1,.51.51,0,0,0,.61-.49L23.84,95a.45.45,0,0,0-.19-.4c-.4-.29-2.87-1.66-9.1-1.66C7.37,93,0,96,0,110.7s8.43,16.87,15.54,16.87A17.46,17.46,0,0,0,25,125.05a.42.42,0,0,0,.17-.38v-16.4a.51.51,0,0,0-.51-.5ZM79.59,94.21H73.53a.5.5,0,0,0-.5.5h0v11.7H63.59V94.72a.5.5,0,0,0-.5-.51H57a.51.51,0,0,0-.5.5h0v31.69a.5.5,0,0,0,.5.5h6.06a.5.5,0,0,0,.5-.5h0V112.85H73l0,13.56a.5.5,0,0,0,.51.5h6.07a.5.5,0,0,0,.5-.5h0V94.71A.5.5,0,0,0,79.59,94.21Zm-47.41.72a3.95,3.95,0,1,0,3.9,3.94A3.92,3.92,0,0,0,32.18,94.93Zm3,9.66h-6a.57.57,0,0,0-.52.56v21c0,.62.38.8.88.8h5.44c.59,0,.74-.29.74-.81v-21a.5.5,0,0,0-.5-.5Zm67.95,0h-6a.5.5,0,0,0-.5.5h0v15.54a6.75,6.75,0,0,1-3.69,1.12c-2.17,0-2.74-1-2.74-3.11V105.14a.5.5,0,0,0-.5-.5h-6.1a.5.5,0,0,0-.5.5v14.58c0,6.3,3.51,7.84,8.34,7.84a14.06,14.06,0,0,0,7.16-2.19,12.35,12.35,0,0,0,.23,1.29.52.52,0,0,0,.44.28l3.88,0a.5.5,0,0,0,.5-.51h0V105.14a.52.52,0,0,0-.5-.51Zm16.43-.72a11.31,11.31,0,0,0-5.74,1.53V94.71a.5.5,0,0,0-.5-.5h-6.07a.5.5,0,0,0-.5.5h0v31.7a.5.5,0,0,0,.5.5h4.22a.51.51,0,0,0,.44-.27,10.39,10.39,0,0,0,.25-1.46,10.87,10.87,0,0,0,7.19,2.35c5.51,0,8.68-2.79,8.68-12.56s-5.06-11-8.47-11Zm-2.37,17.86a7.14,7.14,0,0,1-3.5-1v-10a8.09,8.09,0,0,1,3.11-1c2.16-.19,4.25.46,4.25,5.63,0,5.44-.94,6.52-3.86,6.43Zm-64-.12c-.26,0-.94.11-1.64.11-2.23,0-3-1-3-2.38v-8.91h4.55a.51.51,0,0,0,.5-.51h0v-4.88a.5.5,0,0,0-.5-.51H48.51v-6c0-.23-.12-.34-.38-.34h-6.2c-.23,0-.36.11-.36.34v6.2l-3.32.81a.5.5,0,0,0-.36.48V110a.5.5,0,0,0,.5.5h3.18v9.38c0,7,4.88,7.65,8.18,7.65a13.88,13.88,0,0,0,3.6-.59.49.49,0,0,0,.29-.46v-4.29a.51.51,0,0,0-.5-.5Z" />
</g>
</symbol>
<symbol viewBox="0 0 128 128" id="icons_Grunt">
<title>icons</title>
<g id="grunt">
<g id="class-hide">
<path d="M27.2,42.65c-.17-2-.29-3.92-.52-5.87a9.4,9.4,0,0,0-.86-3l-.24,2c-.18-.06-.35-.06-.4-.14-1.44-2.12-3.15-4.41-1.9-7s4-2.22,6.3-2.05A31.86,31.86,0,0,1,44.67,32c3,1.91,5.86,4,9.06,5.75l-2.84-4.09-.36-.5v0c-.63-1.48-1.15-3-1.9-4.44-1.26-2.37-3-4.56-1.91-7.52,4.09-1.07,8.13-2.61,12.29-3.11,7.59-.91,15.11-.23,22.19,3.09l.44.33.08,0a12.7,12.7,0,0,1-2.22,7,27.39,27.39,0,0,0-1.73,4.3.33.33,0,0,1-.16.25l-.67.78-2.69,3.85.25.29c.53-.36,1.07-.71,1.59-1.09,5.19-3.8,10.41-7.6,16.77-9.21a32.9,32.9,0,0,1,7.51-1c4.21-.05,5.75,2.49,4,6.28-.44,1-1,1.85-1.78,3.14l-.51-2.16-.35,0-.91,6.89-.09.1.06.26.06,1.9a5.27,5.27,0,0,0-.58,1.62c0,4.41.35,8.72,3.73,12.59-2.68,1.36-5,2.67-7.51,3.79C94.31,62,92,63,91.2,65.51c-.67,2.13-1,4.35-1.55,6.52l-1.24-3.44c-.36,8.38,0,16.58,2.69,24.5l-3.79.69Q83.53,88,79.72,82.26c-.18-.27-.59-.38-.89-.57l-.32-.78.16-.23-.28-.06,0,0-.28-.46-2.08-4.21-.63.2Q78.21,86.72,81,97.33a1.89,1.89,0,0,1-.48.11H46.67c2.06-6.73,4.48-13.21,5.17-20.08l-.46-.16-1.54,2.93-.38.82a.56.56,0,0,1-.09.31,5.26,5.26,0,0,0-1.11.9c-1.86,2.77-3.7,5.54-5.5,8.35-.66,1-1.18,2.18-1.77,3.27l-4.14-.7C39.63,85.19,40,77,39.61,68.72L38.3,72.15c-.28-5.6-1.95-9.82-7.86-11.55-2.26-.66-4.22-2.33-5.84-3.26,1-2.58,2.16-4.48,2.46-6.52A57,57,0,0,0,27.2,42.65Zm42.88.42.38-.4.94-1.08a71,71,0,0,1-7.16.65,71.83,71.83,0,0,1-7.15-.72l-.5-.13.5.13.76,1.53c4.25,4.83,7.8,4.93,12.07.33a1.74,1.74,0,0,0,.18-.33Zm-23.7,25.6,4.55-2.82a49.49,49.49,0,0,0,3-6.07c.35-1,.54-1.56,1.64-1.85,2.41-.63,3.65-2.26,3.59-4.35l-2.42.29a17.22,17.22,0,0,1-6.13-6A16.63,16.63,0,0,0,47,44.18c-2.78-2.31-6.26-2.84-9.66-2.91-2.09-.05-4.2.95-6.3,1.47a.16.16,0,0,1-.21,0l-.55.23-.11.16c0,.05,0,.15.05.16l2.41.84c-2,2.54-1.77,5-.22,7.6l.8-2.83.39,0,.19,2,.26.89.15.59c-.21,6.41,5.52,11,14,10.87l-1.9,5.36-.09.16Zm35.18,0,.15.09-.16-.09-1.83-5.42c9.93,1,14-5.77,14.37-11.94L94.48,49h.32l.75,2.77c1.5-2.67,1.88-5.1-.22-7.56l2.49-1-1-.41c-.51-.31-1-.84-1.53-.88a45.41,45.41,0,0,0-6.88-.37,13.31,13.31,0,0,0-10.83,6c-1.7,2.54-3.53,4.88-6.35,6.25l-2.61-.3a5.27,5.27,0,0,0,4,4.47,2.53,2.53,0,0,1,1.29,1.23C75,61.44,76,63.66,77,65.86Z" style="fill:#f5a900;fill-rule:evenodd"/>
<path d="M44.5,112.26a55,55,0,0,1-2.18-5.66c-.79-3,.39-4.77,3.41-5.48a13.92,13.92,0,0,1,3-.35q15.25,0,30.51,0c.32,0,.64,0,.95,0,4.88.2,6.65,2.71,5.08,7.31-.49,1.43-1.2,2.79-1.81,4.17l-.41.75h0c-1.31.85-2.59,1.77-3.95,2.55a28.32,28.32,0,0,1-11,3.31,32.06,32.06,0,0,1-15.52-1.67,74.71,74.71,0,0,1-7.4-3.78l-.29-.47Zm36.63-3.08.42-.75c1.16-3,.64-3.82-2.53-3.85-2.35,0-4.71,0-7.07,0s-2.79.79-2.18,3a19.13,19.13,0,0,0,.86,3.41c1.18,2.7,3.33,4.21,5.23,3.89a6.85,6.85,0,0,0,5.28-5.7Zm-34.34,0h0a6.51,6.51,0,0,0,4.83,5.5A3.74,3.74,0,0,0,56.07,113a30.6,30.6,0,0,0,2.13-5.35c.65-2.24.19-3-2.09-3-2-.06-4.07,0-6.1,0-4.37,0-4.46.14-3.61,4.2Z" style="fill:#f5a800;fill-rule:evenodd"/>
<path d="M27.2,42.65a58.5,58.5,0,0,1-.13,8.17c-.31,2-1.46,3.94-2.47,6.51,1.63.94,3.59,2.6,5.84,3.26,5.91,1.73,7.58,6,7.86,11.56l1.31-3.43c.37,8.28,0,16.46-2.76,24.36-2.52-.58-2.43-.58-2.27-3.35.29-5.14.6-10.29.68-15.43a10.54,10.54,0,0,0-5.92-10.13A39.26,39.26,0,0,1,23,60.25c-3.19-2.53-3-6.67.32-8.69l.11,1.84.42.2c.72-1.8,1.58-3.55,2.14-5.39s.79-3.7,1.17-5.56ZM91.1,93.09c-2.67-7.93-3-16.13-2.69-24.5L89.65,72c.5-2.16.88-4.38,1.55-6.51C92,62.94,94.32,62,96.55,61c2.45-1.12,4.82-2.43,7.5-3.79-3.38-3.87-3.77-8.18-3.73-12.59A5.27,5.27,0,0,1,100.9,43c.58,3.56,1.23,7.1,3.46,10.59l.25-2.07a4.85,4.85,0,0,1,1.22,7.78,19.17,19.17,0,0,1-5.56,3.93c-5.61,2.54-8,6.81-7.61,12.79.26,4.7.4,9.4.78,14.08.15,1.93-.36,2.92-2.34,3Zm13.59-39.23,0,.1h.08Z" style="fill:#e08700;fill-rule:evenodd"/>
<path d="M45.17,113.43a74.71,74.71,0,0,0,7.4,3.78,32.06,32.06,0,0,0,15.52,1.67,28.32,28.32,0,0,0,11-3.31c1.36-.78,2.64-1.7,4-2.55a17.83,17.83,0,0,1-10.55,9.89c-7.91,2.76-15.61,2.31-22.34-3.13C48.15,118.12,46.82,115.57,45.17,113.43Z" style="fill:#e08600;fill-rule:evenodd"/>
<path d="M23.86,87.23c3.6,7.69,10.46,9.77,18,10.47l-3.51,6.54C29.33,103.5,23.5,96.67,23.86,87.23Zm65.71,17-3.4-6.49c7.13-.82,14-2.51,17.61-9.92a5.54,5.54,0,0,1,.32,1.4C103.83,97,98.51,103.53,89.57,104.23Z" style="fill:#fff;fill-rule:evenodd"/>
<path d="M23.86,87.23c-.36,9.44,5.47,16.27,14.51,17l.64,4.35c-1.75-.3-3.47-.46-5.11-.91-7.12-2-11.11-7-11.23-14.37a44.39,44.39,0,0,1,.72-6.36s.27-.08.4,0S23.84,87.11,23.86,87.23Zm65.71,17c8.94-.7,14.26-7.24,14.53-15a5.54,5.54,0,0,0-.32-1.4l.5-1.14c1.6,5.16,1.73,10.23-1.27,14.82-3.23,4.92-8.25,6.64-14,7Z" style="fill:#c7c6c6;fill-rule:evenodd"/>
<path d="M103.08,10c-1.25.42-2.17,1-3,1-5.95-.61-10.73,2.57-14.18,7.69l-2.63-1.27C87.74,9.6,95.53,6.71,103.08,10Zm-77.67.32c7-3.69,15.31-.43,19.35,7l-2.4,1.23c-1.57-1.6-3-3.21-4.58-4.62a12.76,12.76,0,0,0-9-3A18,18,0,0,1,25.41,10.34Z" style="fill:#f0a500;fill-rule:evenodd"/>
<path d="M96.93,14c-.42,2.62-.78,4.91-1.16,7.2a2.62,2.62,0,0,1-2,2.44c-2.07.7-2.8-.78-3.63-1.86a3.08,3.08,0,0,1,.06-2.5,7.82,7.82,0,0,1,5.3-5A11.53,11.53,0,0,1,96.93,14ZM31,14.11c3.21,0,7.49,3.61,7.2,6.64a4.53,4.53,0,0,1-2.69,3,2.47,2.47,0,0,1-3.18-1.93c-.16-.87-.29-1.75-.44-2.62Z" style="fill:#de8500;fill-rule:evenodd"/>
<path d="M46.73,21.2c-1.14,3,.65,5.15,1.91,7.52.75,1.42,1.27,3,1.9,4.44L40.47,25A16.05,16.05,0,0,1,46.73,21.2Z" style="fill:#e08600;fill-rule:evenodd"/>
<path d="M77.78,32.83a27.39,27.39,0,0,1,1.73-4.3,12.7,12.7,0,0,0,2.22-7l6.13,3.27Zm1,48.86c.3.19.71.3.89.57,2.55,3.83,5.07,7.67,7.6,11.52-4.58.41-3.58.54-5-3C81.09,87.75,80,84.71,78.83,81.69ZM41,93.79c.59-1.09,1.11-2.23,1.77-3.27q2.7-4.22,5.5-8.35a4.7,4.7,0,0,1,1.11-.9c-1.51,3.89-3,7.81-4.55,11.67C44,94.9,42.31,93.68,41,93.79Z" style="fill:#de8600;fill-rule:evenodd"/>
<path d="M36.39,112.29c4.85-1.21,5.4,2.66,7.16,5.88A16.27,16.27,0,0,1,36.39,112.29Zm55.09,0c-1.5,2.72-3.91,4.36-6.66,5.82,1-4.76,2.47-6,6.69-5.79Zm0,0,0-.17-.06.14Z" style="fill:#eca200;fill-rule:evenodd"/>
<path d="M78.39,80.62l.28.06-.16.23A.32.32,0,0,1,78.39,80.62Z" style="fill:#de8600;fill-rule:evenodd"/>
<path d="M100.84,41.12l-.06-.25.09-.1A.29.29,0,0,1,100.84,41.12Z" style="fill:#e08700;fill-rule:evenodd"/>
<path d="M77,65.86c-.13-2.55-1.12-5.15.56-7.71,3.93,2.79,7.83,1.87,11.72-.22,2.67-1.45,3.71-4,4.81-6.61-.36,6.16-4.44,12.91-14.36,11.93l1.82,5.42h0ZM34.24,52.44a11.78,11.78,0,0,0,9.43,7.33,8.3,8.3,0,0,0,6.7-1.65c1.7,2.53.82,5.15.56,7.73l-4.55,2.82h0l1.9-5.36C39.76,63.47,34,58.85,34.24,52.44Z" style="fill:#e08700;fill-rule:evenodd"/>
<path d="M56.73,53.87c-2.69.43-4.61-.94-6.29-2.77-3-3.29-6.37-6.18-10.73-7.33-2.77-.73-5.74-.71-8.63-1,2.1-.53,4.21-1.52,6.3-1.48,3.4.08,6.88.6,9.66,2.92a16.63,16.63,0,0,1,3.56,3.65A17.22,17.22,0,0,0,56.73,53.87Z" style="fill:#de8600;fill-rule:evenodd"/>
<path d="M96.79,42.82c-7.7-.9-13.67,2.42-18.76,7.78-1.52,1.6-3.08,3-5.36,3.36a8.12,8.12,0,0,1-1.47-.09c2.82-1.37,4.65-3.71,6.35-6.25a13.31,13.31,0,0,1,10.83-6,45.41,45.41,0,0,1,6.88.37C95.8,42,96.28,42.52,96.79,42.82Zm-38.94.23-.77-1.53h0c2.39.26,4.77.7,7.16.72a70.85,70.85,0,0,0,7.15-.65l-.93,1.08-.38.4,0,0a53.25,53.25,0,0,1-7.16,1.12C61.25,44.21,59.54,43.45,57.85,43.05Z" style="fill:#df8600;fill-rule:evenodd"/>
<path d="M46.79,109.17c.72.7,1.43,1.42,2.16,2.11,2.28,2.18,5,2,6.92-.42.82-1,1.56-2.16,2.33-3.25A30.6,30.6,0,0,1,56.07,113a3.75,3.75,0,0,1-4.45,1.71A6.51,6.51,0,0,1,46.79,109.17Z" style="fill:#dc8400;fill-rule:evenodd"/>
<path d="M69.77,107.56c.68,1,1.34,2,2.06,2.92,2.23,2.93,5.07,3.1,7.66.47.57-.58,1.1-1.19,1.65-1.79a6.85,6.85,0,0,1-5.28,5.7c-1.9.32-4-1.19-5.23-3.89A19.13,19.13,0,0,1,69.77,107.56Z" style="fill:#de8500;fill-rule:evenodd"/>
<path d="M79.64,54.52c2.76-3.2,6.2-5.51,10.23-7.88v4.79c-1.67,2.12-3.54,4-6.44,4A16.36,16.36,0,0,1,79.64,54.52Z" style="fill:#fff;fill-rule:evenodd"/>
<path d="M79.64,54.52a16.36,16.36,0,0,0,3.79.92c2.9,0,4.77-1.89,6.44-4,0,5.45-7.52,7.35-11.37,4.46Z" style="fill:#c5c4c3;fill-rule:evenodd"/>
<path d="M38.11,51.42V46.64c4,2.34,7.45,4.65,10.21,7.84-1.59,1.44-4.81,1.48-7.14-.12A25,25,0,0,1,38.11,51.42Z" style="fill:#fff;fill-rule:evenodd"/>
<path d="M38.11,51.42a25,25,0,0,0,3.07,2.94c2.33,1.6,5.55,1.56,7.14.13.25.27.52.54.75.83a5.36,5.36,0,0,1,.34.62C45.77,58.76,38.17,57,38.11,51.42Z" style="fill:#c5c4c3;fill-rule:evenodd"/>
</g>
<path d="M96.94,89.78a16.54,16.54,0,0,0,6.5-10.58,18.25,18.25,0,0,1,5.46,14.91c-.48,7.67-4,13.26-11.27,16.26a3.26,3.26,0,0,0-1.4,1.42c-3.4,6.17-8.42,10.08-15.48,11.2a4.46,4.46,0,0,0-1.69.77c-8.4,5.67-21.75,5.65-30.19,0A5.06,5.06,0,0,0,47,123,20.09,20.09,0,0,1,32.53,113a8,8,0,0,0-3.76-3.46c-12.26-5.59-12-23.73-4.38-30A45.3,45.3,0,0,0,26.68,85,48.71,48.71,0,0,0,30.2,89.9l.59-.16c.2-2,.47-4,.58-6.09.17-2.86.29-5.72.3-8.59,0-3.5-1.29-6.22-4.6-7.92a41,41,0,0,1-6.94-4.33C15,58.64,15.12,53,20.32,49a5,5,0,0,0,2.14-3.64c.3-3.29.82-6.57-1.54-9.48a8.63,8.63,0,0,1-1.29-3c-1.53-5,.93-9,6.09-9.77,1.49-.23,2.3-.62,2.48-2.35.32-3.09-.35-5.21-3.19-6.7a68.5,68.5,0,0,0-7.29-2.82C20.64,7.09,25,5.18,30.08,4.87c6.73-.41,12,2.67,16.51,7.38.74.79,1.37,1.69,2.15,2.43a2.23,2.23,0,0,0,1.52.62c.26,0,.61-.83.65-1.31a14.34,14.34,0,0,1,5-9.75,12.88,12.88,0,0,1,1.71-1.11l1.43,6.7h.62c1-5.36,4.68-8.1,9.48-9.82a38.63,38.63,0,0,0-.25,4.6,37.39,37.39,0,0,0,.83,4.51C72.5,7.2,74.87,5.23,78,5.31c-.67,2.55-1.4,5-2,7.55-.29,1.29.07,2.52,1.71,2.48a2.75,2.75,0,0,0,1.76-1c3.55-4.12,7.48-7.64,12.94-9,7-1.73,14,.61,18,6.16-.75.19-1.46.3-2.13.54A30.64,30.64,0,0,0,103.14,14c-3.33,1.9-3.87,3.69-3.07,8,.07.38.68.79,1.13,1,.71.26,1.5.27,2.23.48,4.25,1.25,6.28,4.77,5.07,9a17,17,0,0,1-1.94,4.32c-2.17,3.45-1.36,7-.48,10.5.2.78,1.23,1.39,2,2,4.48,3.57,4.92,9,.61,12.83a46.5,46.5,0,0,1-8.1,5.3,7.23,7.23,0,0,0-4.1,6.43c0,5.33.3,10.67.49,16ZM78.41,80.6l0,0a.33.33,0,0,0,.12.29l.32.78c1.15,3,2.26,6.06,3.47,9.06,1.44,3.57.44,3.44,5,3l3.78-.7c2,0,2.5-1,2.34-3-.38-4.68-.52-9.39-.78-14.08-.34-6,2-10.25,7.61-12.79a19.31,19.31,0,0,0,5.55-3.93,4.84,4.84,0,0,0-1.21-7.78l-.25,2.07c-2.23-3.49-2.88-7-3.46-10.6l-.06-1.9a.29.29,0,0,0,0-.35l.91-6.89.35,0,.51,2.16c.74-1.29,1.34-2.18,1.78-3.14,1.71-3.8.17-6.33-4-6.28a32.89,32.89,0,0,0-7.51,1c-6.36,1.62-11.58,5.42-16.77,9.22-.52.38-1.06.73-1.59,1.09l-.25-.29L77,33.85l.66-.77a.37.37,0,0,0,.17-.25l10.07-8.07-6.12-3.27h-.09l-.44-.32c-7.08-3.32-14.6-4-22.19-3.09-4.16.49-8.2,2-12.29,3.11A16.15,16.15,0,0,0,40.47,25l10.07,8.19v0l.37.5,2.83,4.09c-3.2-1.79-6.09-3.84-9.06-5.75a31.77,31.77,0,0,0-15.09-5.34c-2.33-.16-5.09-.44-6.3,2.06s.46,4.86,1.9,7c.05.08.22.08.41.14l.23-2a9.35,9.35,0,0,1,.86,3c.23,1.95.36,3.92.52,5.88-.38,1.85-.62,3.75-1.17,5.55s-1.42,3.6-2.14,5.39l-.41-.19-.12-1.84c-3.32,2-3.51,6.15-.32,8.69a39.26,39.26,0,0,0,6.3,3.92,10.52,10.52,0,0,1,5.92,10.12c-.08,5.15-.39,10.3-.68,15.44-.16,2.77-.25,2.76,2.27,3.35l4.15.71c1.32-.11,3,1.11,3.82-.85,1.58-3.86,3-7.78,4.55-11.68a.47.47,0,0,0,.09-.31l.39-.81,1.53-2.93.46.16c-.68,6.87-3.1,13.34-5.17,20.07H80.54a1.78,1.78,0,0,0,.47-.12l-5.58-21.2.62-.19,2.09,4.21.27.46Zm13.1,31.68c-4.22-.21-5.69,1-6.69,5.79,2.75-1.46,5.16-3.1,6.66-5.82l.06-.14Zm12.27-24.46c-3.62,7.41-10.48,9.1-17.61,9.92l3.4,6.49L89,108.49c5.72-.35,10.74-2.07,14-7,3-4.59,2.88-9.66,1.28-14.82Zm-79.92-.59c0-.12,0-.33-.07-.34s-.39,0-.4,0a44.39,44.39,0,0,0-.72,6.36c.12,7.38,4.11,12.42,11.23,14.37,1.64.45,3.36.61,5.11.91l-.64-4.35,3.51-6.53C34.32,97,27.46,94.92,23.86,87.23ZM83.08,113l.4-.75c.61-1.38,1.32-2.74,1.81-4.17,1.57-4.6-.2-7.11-5.08-7.31-.31,0-.63,0-.95,0q-15.26,0-30.51,0a13.92,13.92,0,0,0-3,.35c-3,.71-4.2,2.49-3.41,5.48a55,55,0,0,0,2.18,5.66l.38.7.29.47c1.65,2.14,3,4.69,5,6.35,6.73,5.44,14.43,5.89,22.34,3.13A17.83,17.83,0,0,0,83.08,113Zm20-103c-7.55-3.31-15.34-.42-19.82,7.37l2.63,1.27c3.45-5.12,8.23-8.3,14.18-7.69C100.91,11.06,101.83,10.44,103.08,10Zm-77.67.32a18,18,0,0,0,3.36.6,12.76,12.76,0,0,1,9,3c1.59,1.41,3,3,4.58,4.62l2.4-1.23C40.72,9.91,32.38,6.65,25.41,10.34ZM96.93,14a11.53,11.53,0,0,0-1.38.23,7.82,7.82,0,0,0-5.3,5,3.08,3.08,0,0,0-.06,2.5c.83,1.08,1.56,2.56,3.63,1.86a2.62,2.62,0,0,0,2-2.44C96.15,18.92,96.51,16.63,96.93,14ZM31,14.11l.89,5.08c.15.87.28,1.75.44,2.62a2.45,2.45,0,0,0,3.18,1.92,4.5,4.5,0,0,0,2.69-3C38.5,17.72,34.22,14.1,31,14.11Zm5.38,98.18a16.27,16.27,0,0,0,7.16,5.88C41.79,115,41.24,111.08,36.39,112.29Z" style="fill:#493310;fill-rule:evenodd"/>
<path d="M104.69,53.86l0,.11h-.08Z" style="fill:#493310;fill-rule:evenodd"/>
<path d="M77,65.86c-1-2.2-2-4.42-3.1-6.59A2.61,2.61,0,0,0,72.61,58a5.26,5.26,0,0,1-4-4.47l2.61.3a8.17,8.17,0,0,0,1.47.09C75,53.65,76.52,52.2,78,50.6c5.09-5.36,11.06-8.68,18.76-7.78l1,.41-2.49,1c2.09,2.46,1.71,4.89.21,7.56L94.8,49h-.32l-.39,2.33C93,53.89,92,56.48,89.28,57.93c-3.89,2.1-7.79,3-11.72.22C75.88,60.71,76.87,63.31,77,65.86ZM89.87,51.43V46.64c-4,2.37-7.47,4.68-10.23,7.88L78.5,55.89C82.35,58.78,89.88,56.88,89.87,51.43Z" style="fill:#49330e;fill-rule:evenodd"/>
<path d="M34.24,52.44l-.15-.59L33.83,51l-.2-2-.38,0-.81,2.83c-1.54-2.64-1.8-5.06.23-7.6l-2.41-.84s-.06-.11-.05-.16l.11-.16.55-.23a.16.16,0,0,0,.21,0c2.89.32,5.86.3,8.63,1,4.36,1.15,7.72,4,10.73,7.33,1.67,1.83,3.6,3.2,6.29,2.77l2.41-.29c.07,2.09-1.17,3.72-3.58,4.35-1.1.29-1.29.84-1.64,1.85a49.49,49.49,0,0,1-3,6.07c.26-2.58,1.14-5.2-.56-7.73a8.3,8.3,0,0,1-6.7,1.65A11.8,11.8,0,0,1,34.24,52.44Zm14.08,2.05c-2.76-3.2-6.19-5.51-10.21-7.85v4.78c.06,5.57,7.66,7.34,11.3,4.52a5.36,5.36,0,0,0-.34-.62C48.84,55,48.57,54.76,48.32,54.49Z" style="fill:#49330f;fill-rule:evenodd"/>
<path d="M57.85,43.05c1.69.4,3.4,1.16,5.09,1.12a53.76,53.76,0,0,0,7.16-1.12,1.74,1.74,0,0,1-.18.33C65.64,48,62.1,47.88,57.85,43.05Z" style="fill:#52380b;fill-rule:evenodd"/>
<path d="M69.77,107.56c-.61-2.19-.1-2.93,2.18-3s4.72,0,7.07,0c3.17,0,3.7.85,2.53,3.85l-.42.75v0c-.55.6-1.08,1.21-1.65,1.79-2.59,2.63-5.43,2.46-7.66-.47C71.11,109.53,70.45,108.53,69.77,107.56Z" style="fill:#47310d;fill-rule:evenodd"/>
<path d="M46.4,108.78c-.85-4.07-.76-4.17,3.61-4.2,2,0,4.07,0,6.1,0,2.28.07,2.74.78,2.09,3-.77,1.09-1.51,2.2-2.33,3.25-1.91,2.45-4.64,2.61-6.93.42-.72-.69-1.43-1.41-2.15-2.11h0Z" style="fill:#47310e;fill-rule:evenodd"/>
</g>
</symbol>
<symbol viewBox="0 0 128 128" id="icons_Gulp">
<title>icons</title>
<g id="gulp">
<g id="gulp-2" data-name="gulp">
<g id="Gulp-Logo">
<path id="Cup" d="M63.73,101a70.4,70.4,0,0,1-16.08-1.79,31.21,31.21,0,0,1-4.6-1.43l3.72,6.35L48.22,124c0,2.23,7.07,4,15.79,4s15.78-1.8,15.78-4l1.15-20,3.51-6.15a31.45,31.45,0,0,1-4.64,1.44A70.32,70.32,0,0,1,63.73,101ZM84.57,36.45A156.36,156.36,0,0,1,64,37.64a156.52,156.52,0,0,1-20.57-1.19A37.9,37.9,0,0,1,37,35.11a8.94,8.94,0,0,1-1.57-.65l3.41,31.38c.16-.54.33-1.08.53-1.61A29.79,29.79,0,0,1,40.78,61a27.89,27.89,0,0,1,1.72-3,21.75,21.75,0,0,1,2-2.59,15.53,15.53,0,0,1,2.15-2,10.25,10.25,0,0,1,2.23-1.33,5.63,5.63,0,0,1,2.22-.48,4.82,4.82,0,0,1,2.46.69,7,7,0,0,1,2.22,2.25,1.71,1.71,0,0,1,.3.7,4.06,4.06,0,0,1,.06.67,1.79,1.79,0,0,1-.35,1.18,1,1,0,0,1-1.68,0,9.59,9.59,0,0,1-.86-1.34,3.09,3.09,0,0,0-1-1.15,2.07,2.07,0,0,0-1.17-.36A3.59,3.59,0,0,0,49,55a12.2,12.2,0,0,0-2.2,2.14,23.2,23.2,0,0,0-2.09,3.05,34.79,34.79,0,0,0-1.77,3.5,26.57,26.57,0,0,0-1.22,3.54,12.68,12.68,0,0,0-.45,3.13,7.69,7.69,0,0,0,.06,1,3.06,3.06,0,0,0,.24.89,1.85,1.85,0,0,0,.47.65,1.16,1.16,0,0,0,.77.26A2.6,2.6,0,0,0,44,72.74a8.27,8.27,0,0,0,1.36-.91,17.82,17.82,0,0,0,1.42-1.27c.47-.48.91-1,1.32-1.44s.77-1,1.09-1.4a7.74,7.74,0,0,0,.71-1.16l1.3-3.89a1.83,1.83,0,0,1,.62-.89,1.37,1.37,0,0,1,.79-.27,1.34,1.34,0,0,1,.39.07.84.84,0,0,1,.35.21,1,1,0,0,1,.25.36,1.38,1.38,0,0,1,.09.52,7.78,7.78,0,0,1-.14,1.49,13,13,0,0,1-.36,1.36c-.14.44-.3.88-.48,1.33s-.35.91-.52,1.39a5.38,5.38,0,0,0-.2.52c-.1.3-.22.66-.36,1.1s-.29.94-.45,1.48-.33,1.11-.5,1.67l-.5,1.67c-.16.55-.3,1-.42,1.48s-.23.81-.32,1.11-.13.48-.15.53a4,4,0,0,1-.22.59,4.72,4.72,0,0,1-.37.61,2.34,2.34,0,0,1-.46.48.83.83,0,0,1-.51.19.72.72,0,0,1-.65-.3,2,2,0,0,1-.21-1.09v-.23a2.29,2.29,0,0,1,0-.25,5.86,5.86,0,0,1,.21-1c.13-.49.28-1,.47-1.65s.37-1.24.58-1.9l.57-1.76c-.5.55-1,1.1-1.61,1.65a19.68,19.68,0,0,1-1.77,1.47,10.79,10.79,0,0,1-1.83,1.06,4.27,4.27,0,0,1-1.77.42A3.26,3.26,0,0,1,40,75.67l-.24-.17,1.9,19.9c.49,1.23,9.79,4.28,22,4.28s21.57-3.05,22.06-4.29l2.73-23.65-.66.6a27.55,27.55,0,0,1-2.21,1.88,10.6,10.6,0,0,1-2,1.22,5.44,5.44,0,0,1-2.13.43,2.58,2.58,0,0,1-1.64-.47,1.55,1.55,0,0,1-.58-1.27V74a.78.78,0,0,1,0-.14,2.94,2.94,0,0,1,.43-1.15,11.72,11.72,0,0,1,.91-1.33c.35-.47.73-.94,1.13-1.41s.77-.92,1.11-1.35a12.14,12.14,0,0,0,.84-1.16,1.73,1.73,0,0,0,.34-.86.4.4,0,0,0-.14-.32.78.78,0,0,0-.46-.11,2.51,2.51,0,0,0-1.15.29,5.8,5.8,0,0,0-1.18.77A11.9,11.9,0,0,0,80,68.36a16.49,16.49,0,0,0-1,1.31c-.32.45-.61.9-.88,1.36s-.49.88-.68,1.26c-.05.13-.13.3-.23.52s-.22.47-.34.74-.25.56-.38.85-.26.57-.37.83l-.3.69c-.09.21-.15.35-.19.43a4.44,4.44,0,0,0-.23.56c-.11.27-.23.6-.37,1s-.29.75-.44,1.16-.3.79-.43,1.16-.26.68-.36,1-.17.46-.2.56a5.94,5.94,0,0,1-.32.81,3.24,3.24,0,0,1-.44.67,1.89,1.89,0,0,1-.56.46,1.51,1.51,0,0,1-1.53-.06,1.08,1.08,0,0,1-.33-.92,3.23,3.23,0,0,1,.08-.68q.09-.34.21-.69l.26-.66c.09-.21.17-.42.25-.62.5-1.1,1-2.2,1.53-3.31s1-2.21,1.5-3.29l.29-.68-.08.09a20.52,20.52,0,0,1-1.81,1.55,9.65,9.65,0,0,1-1.79,1.06,4.1,4.1,0,0,1-1.72.4,2.28,2.28,0,0,1-1-.18,1.51,1.51,0,0,1-.61-.5,1.85,1.85,0,0,1-.33-.74c0-.1,0-.2,0-.3-.17.12-.33.25-.5.36a9.7,9.7,0,0,1-1.7,1,3.74,3.74,0,0,1-1.51.37,1.43,1.43,0,0,1-1.09-.45,2.18,2.18,0,0,1-.41-1.52,8.26,8.26,0,0,1,.22-1.77,9.14,9.14,0,0,1-.91,1.31A8.36,8.36,0,0,1,60,74.63a6.62,6.62,0,0,1-1.56.88,5.08,5.08,0,0,1-1.89.34,3.3,3.3,0,0,1-.89-.12,1.82,1.82,0,0,1-.74-.39,1.94,1.94,0,0,1-.52-.76,3.07,3.07,0,0,1-.19-1.18s0-.18.05-.5a11.25,11.25,0,0,1,.36-1.54c.2-.7.51-1.61.92-2.72s1-2.46,1.78-4a2.2,2.2,0,0,1,.67-.9,1.45,1.45,0,0,1,.84-.27,1.41,1.41,0,0,1,.4,0,1.38,1.38,0,0,1,.39.18,1.14,1.14,0,0,1,.3.32.9.9,0,0,1,.11.44,1.06,1.06,0,0,1,0,.31,3.16,3.16,0,0,1-.3.74l-.53,1c-.21.39-.42.81-.65,1.26s-.44.92-.64,1.41a15.14,15.14,0,0,0-.5,1.48,6.44,6.44,0,0,0-.24,1.46,1.15,1.15,0,0,0,.14.55.51.51,0,0,0,.46.25,2.88,2.88,0,0,0,1.73-.6A7.89,7.89,0,0,0,61,70.83a14.9,14.9,0,0,0,1.26-1.9c.38-.68.69-1.3.94-1.86a10.15,10.15,0,0,0,.47-1.21,11,11,0,0,1,.44-1.19,3.91,3.91,0,0,1,.54-.91,1,1,0,0,1,1.57,0,1.48,1.48,0,0,1,.29.91,2.5,2.5,0,0,1-.19.82c-.12.34-.28.74-.47,1.19l-.62,1.43c-.23.51-.43,1-.63,1.54s-.34,1-.47,1.54a5.58,5.58,0,0,0-.19,1.4c0,.4.21.59.62.59a2.82,2.82,0,0,0,1.07-.29A7.34,7.34,0,0,0,67,72.07l.35-.28a13.3,13.3,0,0,1,.46-1.5c.33-.86.66-1.71,1-2.56s.64-1.63.92-2.33l4.23-10.67a1.77,1.77,0,0,1,.67-.91,1.68,1.68,0,0,1,.86-.26,1.23,1.23,0,0,1,.79.28,1.09,1.09,0,0,1,.36.91,1.84,1.84,0,0,1-.12.63c-.08.22-.18.46-.3.71-.23.52-.51,1.15-.83,1.9l-1,2.45-1.13,2.75c-.38,1-.76,1.88-1.13,2.79s-.71,1.76-1,2.57-.6,1.51-.83,2.11c-.1.25-.2.55-.3.88a3.24,3.24,0,0,0-.15.9.76.76,0,0,0,.09.4.33.33,0,0,0,.32.15,1.79,1.79,0,0,0,.73-.21,8.86,8.86,0,0,0,1-.54c.34-.23.69-.49,1.06-.78s.73-.6,1.1-.91.71-.63,1-.94l.88-.87a.64.64,0,0,1,.22-.14c.16-.47.3-.93.43-1.38l.3-.84a10.24,10.24,0,0,1,.45-1.08,5.34,5.34,0,0,1,.56-.92.89.89,0,0,1,.68-.39,1.11,1.11,0,0,1,.81.26,1,1,0,0,1,.25.75,2.67,2.67,0,0,1,0,.32c0,.14,0,.29-.06.45s-.06.31-.1.46a1.74,1.74,0,0,1-.09.31c.35-.37.72-.75,1.12-1.12a12.92,12.92,0,0,1,1.24-1A7.12,7.12,0,0,1,83,63.7a3.36,3.36,0,0,1,1.34-.28,3.18,3.18,0,0,1,.91.13,2.76,2.76,0,0,1,.81.39,2,2,0,0,1,.58.64,1.77,1.77,0,0,1,.22.9,3.55,3.55,0,0,1-.34,1.45,9.91,9.91,0,0,1-.86,1.54c-.34.52-.72,1-1.11,1.52l-1.13,1.34-.88,1a1.49,1.49,0,0,0-.37.57.43.43,0,0,0,.13.33.59.59,0,0,0,.42.12,1.57,1.57,0,0,0,.69-.27,11.73,11.73,0,0,0,1.3-.91c.55-.44,1.25-1,2.1-1.76.59-.5,1.27-1.1,2-1.78l3.69-34.19a8.94,8.94,0,0,1-1.57.65A37.9,37.9,0,0,1,84.57,36.45ZM64,28.33c-16,0-28.9,1.79-28.9,4s12.94,4,28.9,4,28.91-1.79,28.91-4S80,28.33,64,28.33Zm11.54,5.16c0,.51-1.53.93-3.43.93s-3.44-.42-3.44-.93,1.54-.94,3.44-.94S75.52,33,75.52,33.49Z" style="fill:#da4648;fill-rule:evenodd"/>
<path id="Straw" d="M69.35,33.07a.16.16,0,0,0,0,.08c0,.34,1.24.61,2.77.61s2.76-.27,2.76-.61l3.62-14.64L92.83,3.35v0C93.15,3,92.53,1.93,91.5,1S89.38-.21,89,.14h0L73.7,16.27Z" style="fill:#da4648;fill-rule:evenodd"/>
</g>
</g>
</g>
</symbol>
<symbol viewBox="0 0 128 128" id="icons_HTML">
<title>icons</title>
<g id="html">
<path d="M27.1,0h5.75V5.7h5.3V0H43.9V17.25H38.15V11.5H32.9v5.75H27.1M51.5,5.75H46.43V0H62.35V5.75h-5.1v11.5H51.5M64.88,0h6l3.7,6.07L78.3,0h6V17.25H78.58V8.7l-4,6.2-4-6.2v8.55H64.88M87.18,0h5.75V11.55h8.15v5.7H87.18"/>
<path d="M26.9,117.75l-8.25-92.6h90.7L101.1,117.7,63.93,128" style="fill:#e44d26"/>
<path d="M64,120.13V32.75h37.07l-7.07,79" style="fill:#f16529"/>
<path id="class-hide" d="M35.5,44.08H64V55.43H48l1,11.62H64V78.37H38.6m.5,5.7H50.5l.8,9.08L64,96.55V108.4l-23.3-6.5" style="fill:#ebebeb"/>
<path id="class-hide-2" data-name="class-hide" d="M92.4,44.08H64V55.43h27.4m-1,11.62H64V78.4H78L76.63,93.15,64,96.55v11.8L87.2,101.9" style="fill:#fff"/>
</g>
</symbol>
<symbol viewBox="0 0 128 128" id="icons_Illustrator">
<title>icons</title>
<g id="illustrator">
<path id="class-hide" d="M5.33,6.93H122.67V121.07H5.33Z" style="fill:#261300"/>
<path d="M0,1.6V126.4H128V1.6ZM5.33,6.93H122.67V121.07H5.33Z" style="fill:#ff7c00"/>
<path d="M44.43,72.27l-4.22,16c-.1.42-.26.53-.8.53H31.57c-.53,0-.64-.16-.53-.8L46.19,35a17.88,17.88,0,0,0,.53-4.43c0-.37.16-.53.43-.53h11.2c.37,0,.53.1.64.53L76,88.11c.1.42,0,.69-.43.69H66.67c-.43,0-.7-.11-.8-.48l-4.43-16Zm14.82-8.64c-1.49-5.92-5-18.83-6.34-25.07H52.8c-1.12,6.24-3.95,16.8-6.19,25.07ZM83.25,34a5.44,5.44,0,0,1,10.88,0c0,3.52-2.29,5.44-5.54,5.44S83.25,37.49,83.25,34Zm.64,12.11c0-.43.16-.64.64-.64h8.38c.42,0,.64.16.64.64V88.16c0,.43-.11.64-.64.64H84.64c-.53,0-.69-.27-.69-.69v-42Z" style="fill:#ff7c00"/>
</g>
</symbol>
<symbol viewBox="0 0 128 128" id="icons_Javascript">
<title>icons</title>
<g id="javascript">
<path d="M0,0V128H128V0ZM69.71,99.83c0,12.46-7.3,18.13-18,18.13-9.63,0-15.21-5-18-11L43.49,101c1.89,3.36,3.61,6.19,7.74,6.19,4,0,6.45-1.55,6.45-7.56V58.77h12ZM98.13,118c-11.17,0-18.39-5.32-21.92-12.3L86,100c2.58,4.21,5.94,7.3,11.87,7.3,5,0,8.17-2.49,8.17-5.93,0-4.12-3.27-5.58-8.76-8l-3-1.29C85.57,88.4,79.81,83.77,79.81,74c0-9,6.87-15.88,17.61-15.88,7.65,0,13.15,2.66,17.11,9.63l-9.37,6c-2.06-3.7-4.28-5.15-7.74-5.15s-5.75,2.23-5.75,5.15c0,3.61,2.23,5.07,7.39,7.3l3,1.29c10.22,4.38,16,8.85,16,18.9C118.06,112.05,109.55,118,98.13,118Z" style="fill:#f7df1e"/>
<g id="class-hide">
<path d="M102.07,82.32l-3-1.29c-5.16-2.23-7.39-3.69-7.39-7.3,0-2.92,2.23-5.15,5.75-5.15s5.68,1.45,7.74,5.15l9.37-6c-4-7-9.46-9.63-17.11-9.63C86.68,58.09,79.81,65,79.81,74c0,9.8,5.76,14.43,14.44,18.13l3,1.29c5.49,2.4,8.76,3.86,8.76,8,0,3.44-3.19,5.93-8.17,5.93-5.93,0-9.29-3.09-11.87-7.3l-9.77,5.68c3.53,7,10.75,12.3,21.92,12.3,11.42,0,19.93-5.93,19.93-16.76C118.06,91.17,112.29,86.7,102.07,82.32Z"/>
<path d="M57.68,99.67c0,6-2.49,7.56-6.45,7.56-4.13,0-5.85-2.83-7.74-6.19L33.7,107c2.84,6,8.42,11,18,11,10.66,0,18-5.67,18-18.13V58.77h-12Z"/>
</g>
</g>
</symbol>
<symbol viewBox="0 0 128 128" id="icons_LESS">
<title>icons</title>
<path id="less" style="fill:#204674;" d="M18.84,88.38v5.83c-3.07-.08-6.08-.21-8.84-1.68C6.94,90.89,6,88,5.76,84.83c-.13-2.16-.14-7.2-.15-11.82C5.39,69.16,3.89,67.46.09,66.8A3.15,3.15,0,0,1,0,66.24V61.45l.27-.25c4-1,5.31-2.59,5.35-6.77,0-2.67,0-5.35,0-8A36.11,36.11,0,0,1,6.09,41c.72-3.93,3.57-6.3,8.14-6.92a34.68,34.68,0,0,1,4.07-.31c3.18,0,6.35,0,9.74,0h0V70.92c0,4.47.5,5.13,4.94,6.4l-1.06,6.23A47.6,47.6,0,0,1,25.19,82c-3.93-1.55-4.55-5.11-4.57-8.78l0-33.59a48.5,48.5,0,0,0-5.06.43c-1.84.35-2.89,1.86-2.95,4.07-.09,3.08,0,6.16-.08,9.24,0,1.42-.09,2.83-.26,4.23a8.23,8.23,0,0,1-3.73,6.22v.38c3.33,2.33,3.92,5.82,4,9.5,0,2.93,0,5.86,0,8.79C12.5,87.05,13.85,88.21,18.84,88.38ZM40.91,68.55c-.47,3.88,2.52,7.45,6.68,8.23,3.93.73,7.72,0,11.65-1.18L60.12,81c0,.27-.43.79-.77.89C53.6,83.65,47.79,84.25,42,82a12.68,12.68,0,0,1-7.51-7.47,21,21,0,0,1,.37-16.91c3.74-8.11,13.08-10.22,20.06-7,4.22,2,6.26,5.62,7,10,.41,2.5.38,5.08.56,7.87Zm14-5.47c.09-4.73-2.59-7.68-6.79-7.66a7.37,7.37,0,0,0-7.18,7.66Zm54.31,31.18V88.42l1.67-.12c3.16-.26,4.57-1.66,4.65-4.82s0-6.06.06-9.09a33.55,33.55,0,0,1,.32-4.37,8.41,8.41,0,0,1,4-6c-4.14-2.63-4.28-6.64-4.32-10.69,0-2.78,0-5.55,0-8.33-.07-3.77-1.46-5.15-5.25-5.31l-1-.08V33.77c3.29.07,6.54.17,9.42,2,2.68,1.74,3.52,4.48,3.65,7.44.16,3.58.08,7.17.14,10.75a12.74,12.74,0,0,0,.35,3.15,5.09,5.09,0,0,0,5.21,4v5.67a5.11,5.11,0,0,0-5.18,4,13.22,13.22,0,0,0-.37,3.14c-.07,3.53,0,7.07-.12,10.6-.2,5.6-3.16,8.72-8.73,9.37C112.16,94.08,110.71,94.14,109.18,94.26Zm-2.78-29c-2.94-1.41-6.64-2.72-7.77-3.35C96.77,61,96,59.6,96.29,58.06s1.45-2.32,3.48-2.64a19.68,19.68,0,0,1,9.42,1.22l1.35-5.86c-3.77-1.15-7.47-1.93-11.27-1.39A20,20,0,0,0,93.52,51c-6,2.87-6,12.29-.66,15.34,1.83,1,3.82,1.8,5.72,2.71,1.59.77,3.23,1.45,4.72,2.36a3,3,0,0,1,1.31,3.44A2.73,2.73,0,0,1,102,77.05a26.64,26.64,0,0,1-5.71.14,67.2,67.2,0,0,1-6.81-1.49l-1.19,5.9a27.92,27.92,0,0,0,16.21,1.18c4.56-1,7.15-3.65,7.51-7.24C112.53,70.41,111,67.5,106.4,65.23ZM68.35,66.37C63,63.28,63,53.92,69.12,50.9a16,16,0,0,1,8.52-1.62c2.78.22,5.53.79,8.45,1.23l-1.41,6.14a19.43,19.43,0,0,0-9.34-1.24c-2.12.32-3.32,1.22-3.57,2.72s.51,2.84,2.43,3.78,4.9,2,7.64,3.27c4.72,2.35,6.36,5.52,5.61,10.73-.51,3.59-3.65,6.35-8.26,7.08a30,30,0,0,1-13.92-.85c-1.12-.36-1.59-.8-1.24-2l1-4.42a66.4,66.4,0,0,0,6.8,1.48A26.64,26.64,0,0,0,77.51,77a2.77,2.77,0,0,0,2.65-2.32,2.93,2.93,0,0,0-1.37-3.28C74.68,69.18,70,67.44,68.35,66.37Z"/>
</symbol>
<symbol viewBox="0 0 128 128" id="icons_Social_LinkedIn">
<title>icons</title>
<g id="social-linkedin">
<path d="M0,0V128H128V0ZM39.3,105.6a3,3,0,0,1-2.95,3H23.79a3,3,0,0,1-2.95-3V52a3,3,0,0,1,2.95-2.95H36.35A3,3,0,0,1,39.3,52ZM30.05,40.86A10.71,10.71,0,1,1,40.81,30.18,10.67,10.67,0,0,1,30.05,40.86Zm78.61,27v39.45a1.23,1.23,0,0,1-1.22,1.23H91.38a1.23,1.23,0,0,1-1.22-1.23V74.24A10.36,10.36,0,0,0,79.68,63.88,10.46,10.46,0,0,0,69.44,74.37v33a1.22,1.22,0,0,1-1.22,1.22h-16A1.23,1.23,0,0,1,51,107.32v-57a1.23,1.23,0,0,1,1.23-1.22H67.88a1.22,1.22,0,0,1,1.22,1.22v6.58l.17,0a17.52,17.52,0,0,1,1-1.59A18.08,18.08,0,0,1,85.1,47.54h3.22a20.34,20.34,0,0,1,20.34,20.34Z" />
</g>
</symbol>
<symbol viewBox="0 0 128 128" id="icons_NPM">
<title>icons</title>
<path id="npm" d="M2,38.5H126V82.21H64V89.5H36.44V82.21H2ZM8.89,74.93H22.67V53.07h6.89V74.93h6.89V45.79H8.89ZM43.33,45.79V82.21H57.11V74.93H70.89V45.79Zm13.78,7.29H64V67.64H57.11Zm20.67-7.29V74.93H91.56V53.07h6.89V74.93h6.89V53.07h6.89V74.93h6.89V45.79Z"/>
</symbol>
<symbol viewBox="0 0 128 128" id="icons_PHP">
<title>icons</title>
<path id="php" style="fill:#8993BE;" d="M64,31.57C28.66,31.57,0,46.09,0,64S28.66,96.43,64,96.43,128,81.91,128,64,99.34,31.57,64,31.57ZM47.35,70.32A12.6,12.6,0,0,1,42.26,73c-1.87.6-4.25.48-7.14.48H28.57L26.75,83.9H19.11l6.82-35.61H40.64c4.42,0,7.65,1.27,9.68,3.59S53,57.5,52.15,61.66a15.45,15.45,0,0,1-4.8,8.66Zm22.32,3.11,3-15.11c.34-1.77.22-3.08-.38-3.72s-1.87-1.08-3.81-1.08H62.44L58.53,73.43H50.94l6.83-34.57h7.58l-1.81,9.43H70.3c4.25,0,7.19.85,8.8,2.33s2.1,3.52,1.45,6.84l-3.17,16Zm42.18-11.71a15.22,15.22,0,0,1-4.81,8.6A12.47,12.47,0,0,1,102,73c-1.86.6-4.24.48-7.13.48H88.27L86.45,83.9H78.8l6.83-35.61h14.71c4.42,0,7.65,1.27,9.68,3.59S112.65,57.56,111.85,61.72Zm-14.41-8.2H92.2L89.34,68.19H94c3.09,0,5.39-.3,6.89-1.47s2.53-3,3.06-5.68.28-4.64-.69-5.71S100.34,53.52,97.44,53.52Zm-59.7,0H32.5L29.65,68.19H34.3c3.08,0,5.38-.3,6.89-1.47s2.52-3,3.05-5.68.28-4.64-.69-5.71S40.65,53.52,37.74,53.52Z"/>
</symbol>
<symbol viewBox="0 0 128 128" id="icons_Photoshop">
<title>icons</title>
<g id="photoshop">
<path id="class-hide" d="M5.33,6.93H122.67V121.07H5.33Z" style="fill:#001d26"/>
<path d="M0,1.6V126.4H128V1.6ZM5.33,6.93H122.67V121.07H5.33Zm25.6,23.9c0-.38.75-.64,1.18-.64,3.41-.16,8.48-.27,13.76-.27C60.64,29.92,66.4,38,66.4,48.43c0,13.54-9.81,19.36-21.87,19.36-2,0-2.72-.11-4.16-.11V88.16c0,.43-.16.64-.64.64H31.57c-.42,0-.64-.16-.64-.64V30.83Zm9.5,28.32c1.22.1,2.18.1,4.32.1,6.24,0,12.1-2.18,12.1-10.66,0-6.78-4.21-10.19-11.3-10.19-2.14,0-4.16.11-5.12.16V59.15ZM86.29,52.8c-4.21,0-5.65,2.13-5.65,3.89,0,1.92,1,3.26,6.61,6.19,8.38,4.05,11,7.95,11,13.65,0,8.54-6.51,13.12-15.31,13.12-4.64,0-8.64-1-10.93-2.29-.37-.16-.43-.43-.43-.85V78.67c0-.54.27-.7.64-.43a19.77,19.77,0,0,0,10.72,3.15c4.22,0,6-1.76,6-4.16,0-1.92-1.23-3.63-6.62-6.4-7.57-3.63-10.72-7.31-10.72-13.44,0-6.88,5.39-12.59,14.72-12.59,4.59,0,7.79.69,9.55,1.49a1.18,1.18,0,0,1,.53,1.07v7.31c0,.42-.26.69-.8.53a18,18,0,0,0-9.28-2.4Z" style="fill:#00c8ff"/>
</g>
</symbol>
<symbol viewBox="0 0 128 128" id="icons_React">
<title>icons</title>
<g id="react">
<path d="M128,64c0-8.48-10.62-16.51-26.9-21.5,3.76-16.59,2.09-29.79-5.27-34A11.46,11.46,0,0,0,90,7v5.82a6,6,0,0,1,3,.68c3.55,2,5.09,9.78,3.89,19.75-.29,2.45-.76,5-1.33,7.67A126,126,0,0,0,79,38.11a128.34,128.34,0,0,0-10.85-13C76.6,17.15,84.59,12.82,90,12.82V7h0C82.84,7,73.44,12.12,64,21,54.45,12.17,45.06,7.11,37.88,7.11v5.82c5.4,0,13.41,4.3,21.92,12.16A122.72,122.72,0,0,0,49,38.11,120.67,120.67,0,0,0,32.43,41c-.6-2.61-1-5.14-1.36-7.57-1.22-10,.29-17.72,3.81-19.78a5.82,5.82,0,0,1,3-.68V7.14h0A11.62,11.62,0,0,0,32,8.6c-7.33,4.22-9,17.4-5.2,33.94C10.57,47.55,0,55.56,0,64s10.62,16.52,26.9,21.5c-3.76,16.6-2.09,29.8,5.27,34A11.4,11.4,0,0,0,38,121c7.17,0,16.57-5.11,26.06-14,9.5,8.82,18.89,13.88,26.07,13.88a11.69,11.69,0,0,0,5.9-1.46c7.33-4.23,9-17.4,5.19-33.94C117.43,80.5,128,72.47,128,64ZM94,46.61c-1,3.37-2.17,6.84-3.52,10.31-1.07-2.09-2.19-4.18-3.42-6.27s-2.48-4.12-3.76-6.1Q88.9,45.38,94,46.61Zm-12,27.79c-2,3.52-4.12,6.86-6.29,10-3.88.34-7.82.53-11.79.53s-7.88-.19-11.74-.5Q49,79.72,46,74.48c-2-3.42-3.79-6.89-5.43-10.39,1.62-3.49,3.44-7,5.4-10.41s4.12-6.86,6.29-10c3.88-.33,7.82-.52,11.79-.52s7.88.19,11.74.5c2.17,3.1,4.28,6.42,6.31,9.91S85.84,60.49,87.48,64C85.84,67.48,84,71,82.08,74.4ZM90.51,71c1.41,3.49,2.61,7,3.6,10.38-3.42.83-7,1.54-10.75,2.09,1.28-2,2.56-4.07,3.76-6.19S89.44,73.09,90.51,71ZM64.05,98.84a106.63,106.63,0,0,1-7.25-8.35c2.35.11,4.75.19,7.17.19s4.88-.05,7.26-.19A100.31,100.31,0,0,1,64.05,98.84ZM44.64,83.48c-3.7-.55-7.28-1.23-10.7-2.06,1-3.37,2.17-6.84,3.53-10.31,1.07,2.09,2.19,4.17,3.41,6.26S43.36,81.49,44.64,83.48Zm19.28-54.3a108.21,108.21,0,0,1,7.25,8.35c-2.34-.1-4.74-.18-7.17-.18s-4.88,0-7.25.18A101.64,101.64,0,0,1,63.92,29.18ZM44.61,44.55c-1.27,2-2.55,4.07-3.75,6.18S38.54,54.91,37.47,57c-1.41-3.49-2.61-7-3.6-10.38C37.28,45.8,40.88,45.1,44.61,44.55ZM21,77.21C11.77,73.28,5.79,68.11,5.79,64s6-9.29,15.21-13.2c2.25-1,4.7-1.83,7.23-2.63A125.81,125.81,0,0,0,34.1,64.07a122.9,122.9,0,0,0-5.79,15.81C25.73,79.07,23.27,78.18,21,77.21ZM35,114.5c-3.55-2-5.09-9.79-3.89-19.75.29-2.45.76-5,1.33-7.67a127.73,127.73,0,0,0,16.57,2.84A128.34,128.34,0,0,0,59.9,103C51.4,110.87,43.41,115.2,38,115.2A6.18,6.18,0,0,1,35,114.5ZM96.93,94.62c1.22,10-.29,17.71-3.81,19.77a5.82,5.82,0,0,1-3,.68c-5.4,0-13.41-4.3-21.92-12.16A122.72,122.72,0,0,0,79,89.89,120.67,120.67,0,0,0,95.57,87,74.1,74.1,0,0,1,96.93,94.62Zm10-17.41c-2.24,1-4.7,1.83-7.23,2.64A123.73,123.73,0,0,0,93.87,64a125.08,125.08,0,0,0,5.8-15.81c2.58.81,5,1.7,7.33,2.66,9.23,3.94,15.21,9.11,15.21,13.2S116.21,73.3,107,77.21Z" style="fill:#61dafb"/>
<circle cx="63.97" cy="64.01" r="11.92" style="fill:#61dafb"/>
</g>
</symbol>
<symbol viewBox="0 0 128 128" id="icons_Sass">
<title>icons</title>
<path id="sass" style="fill:#CF649A;" d="M110.22,71.19a26.45,26.45,0,0,0-11.6,2.68c-1.19-2.36-2.38-4.46-2.59-6a16,16,0,0,1-.24-5.05,46,46,0,0,1,1.52-5.45c0-.24-.28-1.33-2.85-1.36s-4.79.49-5,1.17A28.11,28.11,0,0,0,88.33,61c-.44,2.34-5.14,10.69-7.83,15.06a16.2,16.2,0,0,1-1.77-4.4,16,16,0,0,1-.24-5.05A43.68,43.68,0,0,1,80,61.16c0-.24-.28-1.34-2.85-1.36s-4.79.49-5,1.17-.54,2.27-1.08,3.81-6.78,15.48-8.41,19.08c-.84,1.84-1.57,3.32-2.08,4.32h0a1.94,1.94,0,0,1-.1.19c-.44.87-.7,1.33-.7,1.33v0c-.35.63-.72,1.21-.91,1.21s-.4-1.68.05-4C59.81,82.13,62,74.6,62,74.34s.42-1.45-1.45-2.13a2.33,2.33,0,0,0-2.64.45c-.17,0-.28.4-.28.4s2-8.47-3.88-8.47c-3.7,0-8.79,4-11.32,7.69L33.84,77c-1.38.78-2.81,1.55-4.14,2.27-.1-.09-.19-.21-.28-.3C22.26,71.3,9,65.9,9.59,55.64,9.8,51.9,11.09,42.08,35,30.15c19.68-9.7,35.35-7,38.06-1,3.88,8.51-8.4,24.32-28.74,26.61-7.76.86-11.83-2.13-12.85-3.25s-1.24-1.24-1.64-1c-.66.35-.24,1.41,0,2,.61,1.59,3.11,4.4,7.34,5.78C40.92,60.45,50,61.13,61,56.88c12.32-4.77,22-18,19.12-29.13-2.83-11.27-21.53-15-39.23-8.7C30.4,22.79,19,28.68,10.78,36.35,1,45.47-.51,53.39.12,56.71c2.27,11.79,18.52,19.46,25,25.14l-.89.49C21,84,8.61,90.43,5.52,97.28,2,105,6.08,110.6,8.77,111.35c8.35,2.32,16.93-1.84,21.54-8.72s4-15.8,1.91-19.89a.31.31,0,0,0-.09-.14l2.55-1.5c1.66-1,3.29-1.89,4.7-2.64A30.58,30.58,0,0,0,37.72,87c-.35,4.39,1.45,10.1,3.81,12.34a4.22,4.22,0,0,0,3.08,1c2.76,0,4-2.29,5.38-5,1.69-3.32,3.2-7.17,3.2-7.17S51.3,98.56,56.44,98.56c1.88,0,3.77-2.43,4.61-3.67v0a2.38,2.38,0,0,0,.14-.24c.19-.3.3-.49.3-.49v0c.75-1.3,2.44-4.27,4.94-9.21,3.22-6.36,6.33-14.31,6.33-14.31A40.11,40.11,0,0,0,74,75.79a47.44,47.44,0,0,0,2.67,6c-.75,1-1.22,1.63-1.22,1.63l0,0c-.61.79-1.27,1.66-2,2.5-2.55,3-5.59,6.52-6,7.53A2.05,2.05,0,0,0,68,96.23a5.13,5.13,0,0,0,3.13.51,13.94,13.94,0,0,0,4.7-1.08,15.84,15.84,0,0,0,4-2.12,9.06,9.06,0,0,0,3.88-8,16.14,16.14,0,0,0-1.47-5.63L83,79a106.65,106.65,0,0,0,7-12.11A40.25,40.25,0,0,0,91.26,72a33.84,33.84,0,0,0,2.26,5.15A22.24,22.24,0,0,0,86.7,86c-1.47,4.26-.33,6.17,1.85,6.62a6.55,6.55,0,0,0,3.41-.7,15.6,15.6,0,0,0,4.32-2.22c2.51-1.85,4.91-4.42,4.77-7.91A15,15,0,0,0,100,77.08a24.42,24.42,0,0,1,12.41-1.43C123.52,77,125.72,83.9,125.3,86.83a7.39,7.39,0,0,1-3.53,5c-.77.49-1,.65-1,1s.47.49,1.12.39A8.69,8.69,0,0,0,128,85.49C128.34,78.62,121.79,71.12,110.22,71.19ZM24.37,100.13c-3.7,4-8.84,5.54-11.06,4.26-2.39-1.38-1.45-7.32,3.09-11.58a58.57,58.57,0,0,1,8.67-6.47L27.36,85a1.84,1.84,0,0,1,.26-.14h0l.56-.35A16,16,0,0,1,24.37,100.13ZM51.25,81.85C50,85,47.28,93,45.64,92.56c-1.4-.38-2.26-6.46-.28-12.47a28.86,28.86,0,0,1,4.37-8c2-2.24,4.24-3,4.77-2.08C55.18,71.19,52.05,79.88,51.25,81.85ZM73.44,92.46c-.54.28-1,.47-1.28.33s.23-.47.23-.47,2.78-3,3.88-4.35c.63-.79,1.38-1.73,2.18-2.78v.3C78.45,89.07,75,91.48,73.44,92.46Zm17.12-3.9c-.4-.28-.33-1.22,1-4.14a15.66,15.66,0,0,1,3.81-4.91,6.55,6.55,0,0,1,.38,2.15C95.72,86.17,92.5,87.86,90.56,88.56Z"/>
</symbol>
<symbol viewBox="0 0 128 128" id="icons_Sketch">
<title>icons</title>
<g id="sketch">
<path d="M43.41,68.69l0-.32H40.64v.37c.17,4.12,3,6.85,7.9,6.85,4.71,0,7.92-2.45,7.92-6.16a5.07,5.07,0,0,0-2-4.39,10.67,10.67,0,0,0-4.26-1.61l-.45-.09-.44-.09c-3.67-.77-4.83-1.44-4.83-3.43s1.68-3.37,4.5-3.37a4.21,4.21,0,0,1,4.57,4.32v.34h2.73v-.36c-.09-4.12-2.86-6.89-7.32-6.89s-7.27,2.63-7.27,6a4.87,4.87,0,0,0,2,4.32A10.68,10.68,0,0,0,48,65.73l.32.06.32.06a11.23,11.23,0,0,1,3.6,1.09,2.75,2.75,0,0,1,1.46,2.63c0,2.19-1.83,3.43-5,3.43S43.62,71.46,43.41,68.69ZM62.23,53.5v-.35H59.5v22h2.73V71l2.88-2.8,5.13,6.82.11.14h3.39l-.43-.57L67,66.36l5.78-5.75.61-.61H69.72l-.1.11-7.39,7.44Zm25.52,15h.33l0-.34c0-.06,0-.15,0-.27a2.44,2.44,0,0,1,0-.27v-.25c0-4.46-2.95-7.75-7.32-7.75s-7.47,3.5-7.47,7.92,3,8,7.49,8a7.11,7.11,0,0,0,7-5.11L88,70H85.16l-.08.23A4.33,4.33,0,0,1,80.86,73a4.69,4.69,0,0,1-4.75-4.46ZM76.19,66.17a4.6,4.6,0,0,1,4.62-4,4.38,4.38,0,0,1,4.54,4Zm20.9-3.75h.36V60H94.12V55.88H91.39V60H88.63v2.42h2.76v8.52c0,2.79,1.45,4.31,4.11,4.31a8.3,8.3,0,0,0,1.2-.08,1.82,1.82,0,0,0,.43-.08l.26-.07V72.49l-.43.09-.1,0-.28.05a7,7,0,0,1-.75.07h-.07c-1.17,0-1.64-.55-1.64-1.92V62.42Zm8.49,13.11a7,7,0,0,0,7.12-5.77l.09-.43H110l-.07.27a4.26,4.26,0,0,1-4.38,3.4c-2.8,0-4.73-2.21-4.73-5.39s1.93-5.42,4.73-5.42A4.27,4.27,0,0,1,110,65.6l.07.26h2.76l-.09-.42a7,7,0,0,0-7.12-5.78c-4.39,0-7.49,3.53-7.49,8S101.2,75.53,105.58,75.53Zm12.24-22v-.35h-2.73v22h2.73V66.27a3.77,3.77,0,0,1,4-4.13c2.3,0,3.46,1.33,3.46,3.85v9.2H128v-9.6c0-3.56-2.21-5.93-5.85-5.93a6,6,0,0,0-4.33,1.67Z" style="fill-rule:evenodd"/>
<path d="M7.08,50.4l9.14-1,9.15,1,7.08,9.42L16.22,78.56,0,59.82Z" style="fill:#fdb300;fill-rule:evenodd"/>
<polygon points="6.57 59.82 16.22 78.56 0 59.82 6.57 59.82" style="fill:#ea6c00;fill-rule:evenodd"/>
<polygon points="25.87 59.82 16.22 78.56 32.45 59.82 25.87 59.82" style="fill:#ea6c00;fill-rule:evenodd"/>
<polygon points="6.57 59.82 25.87 59.82 16.22 78.56 6.57 59.82" style="fill:#fdad00;fill-rule:evenodd"/>
<polygon points="16.22 49.44 7.08 50.4 6.57 59.82 16.22 49.44" style="fill:#fdd231;fill-rule:evenodd"/>
<polygon points="16.22 49.44 25.37 50.4 25.87 59.82 16.22 49.44" style="fill:#fdd231;fill-rule:evenodd"/>
<polygon points="32.45 59.82 25.37 50.4 25.87 59.82 32.45 59.82" style="fill:#fdad00;fill-rule:evenodd"/>
<polygon points="0 59.82 7.08 50.4 6.57 59.82 0 59.82" style="fill:#fdad00;fill-rule:evenodd"/>
<polygon points="16.22 49.44 6.57 59.82 25.87 59.82 16.22 49.44" style="fill:#feeeb7;fill-rule:evenodd"/>
</g>
</symbol>
<symbol viewBox="0 0 128 128" id="icons_Social_StackOverflow">
<title>icons</title>
<g id="social-stackoverflow">
<path d="M101.32,116.62V82.33H112.7V128H10V82.33H21.36v34.29Z" />
<path d="M33.92,79.08,89.79,90.75l2.37-11.23L36.29,67.84Zm7.39-26.61L93,76.56l4.73-10.34L46,42ZM55.65,27.05l43.9,36.51,7.24-8.72L62.89,18.33ZM84,0,74.86,6.8l34,45.82,9.16-6.8ZM32.74,105.09H89.79V93.71h-57Z" />
</g>
</symbol>
<symbol viewBox="0 0 128 128" id="icons_Social_Twitter">
<title>icons</title>
<path id="social-twitter" d="M40.25,116C88.56,116,115,76,115,41.28c0-1.13,0-2.27-.07-3.39A53.44,53.44,0,0,0,128,24.29a52.39,52.39,0,0,1-15.08,4.14A26.39,26.39,0,0,0,124.46,13.9a52.3,52.3,0,0,1-16.67,6.37A26.29,26.29,0,0,0,63,44.23,74.58,74.58,0,0,1,8.91,16.79,26.27,26.27,0,0,0,17,51.84,26.07,26.07,0,0,1,5.12,48.56v.33A26.26,26.26,0,0,0,26.19,74.63a26.12,26.12,0,0,1-11.86.45A26.29,26.29,0,0,0,38.87,93.32,52.72,52.72,0,0,1,6.25,104.59,54.32,54.32,0,0,1,0,104.21,74.38,74.38,0,0,0,40.25,116"/>
</symbol>
<symbol viewBox="0 0 128 128" id="icons_Wordpress">
<symbol viewBox="0 0 128 128" id="icons_Social_GitHub">
<title>icons</title>
<g id="social-github">
<path d="M64,.43A42.77,42.77,0,0,0,50.48,83.77c2.14.4,2.92-.92,2.92-2s0-4.39-.06-8c-11.89,2.59-14.4-5-14.4-5-1.95-4.94-4.75-6.26-4.75-6.26-3.88-2.65.29-2.6.29-2.6,4.3.3,6.56,4.41,6.56,4.41,3.81,6.54,10,4.65,12.44,3.55a9.13,9.13,0,0,1,2.72-5.72C46.7,61,36.71,57.35,36.71,41a16.54,16.54,0,0,1,4.41-11.48c-.45-1.08-1.91-5.43.41-11.32,0,0,3.59-1.15,11.76,4.39A40.69,40.69,0,0,1,64,21.11a41.16,41.16,0,0,1,10.71,1.44c8.16-5.53,11.75-4.39,11.75-4.39,2.33,5.89.86,10.24.42,11.32A16.52,16.52,0,0,1,91.28,41c0,16.42-10,20-19.53,21.1,1.54,1.33,2.9,3.93,2.9,7.92,0,5.72,0,10.33,0,11.73,0,1.14.77,2.47,2.93,2.05A42.77,42.77,0,0,0,64,.43Z" />
<path d="M37.43,61.83c-.09.21-.43.28-.73.13s-.48-.43-.38-.64.42-.28.73-.14.49.44.39.65Zm1.74,1.93c-.21.19-.61.1-.88-.2a.64.64,0,0,1-.12-.88c.21-.19.59-.1.87.19s.34.7.13.89Zm1.68,2.46c-.26.19-.69,0-1-.36s-.27-.84,0-1,.69,0,1,.36.26.84,0,1Zm2.31,2.38c-.23.26-.73.19-1.1-.16a.83.83,0,0,1-.24-1.09c.24-.26.74-.19,1.11.16s.48.84.23,1.09ZM46.35,70c-.1.33-.59.48-1.07.34s-.8-.54-.7-.88.58-.49,1.07-.34.8.53.7.88Zm3.5.25c0,.35-.4.65-.91.65s-.92-.27-.93-.62.4-.64.91-.65S49.85,69.89,49.85,70.24Zm3.25-.55c.06.34-.29.7-.79.79s-1-.12-1-.46.3-.71.79-.8,1,.12,1,.47Z" />
<path d="M24.65,107.77H13.9a.5.5,0,0,0-.5.5v5.26a.5.5,0,0,0,.5.51h4.19v6.53a12.75,12.75,0,0,1-3.55.32c-3.07,0-7.36-1.12-7.36-10.56s4.47-10.69,8.67-10.69a16.91,16.91,0,0,1,6.19,1,.51.51,0,0,0,.61-.49L23.84,95a.45.45,0,0,0-.19-.4c-.4-.29-2.87-1.66-9.1-1.66C7.37,93,0,96,0,110.7s8.43,16.87,15.54,16.87A17.46,17.46,0,0,0,25,125.05a.42.42,0,0,0,.17-.38v-16.4a.51.51,0,0,0-.51-.5ZM79.59,94.21H73.53a.5.5,0,0,0-.5.5h0v11.7H63.59V94.72a.5.5,0,0,0-.5-.51H57a.51.51,0,0,0-.5.5h0v31.69a.5.5,0,0,0,.5.5h6.06a.5.5,0,0,0,.5-.5h0V112.85H73l0,13.56a.5.5,0,0,0,.51.5h6.07a.5.5,0,0,0,.5-.5h0V94.71A.5.5,0,0,0,79.59,94.21Zm-47.41.72a3.95,3.95,0,1,0,3.9,3.94A3.92,3.92,0,0,0,32.18,94.93Zm3,9.66h-6a.57.57,0,0,0-.52.56v21c0,.62.38.8.88.8h5.44c.59,0,.74-.29.74-.81v-21a.5.5,0,0,0-.5-.5Zm67.95,0h-6a.5.5,0,0,0-.5.5h0v15.54a6.75,6.75,0,0,1-3.69,1.12c-2.17,0-2.74-1-2.74-3.11V105.14a.5.5,0,0,0-.5-.5h-6.1a.5.5,0,0,0-.5.5v14.58c0,6.3,3.51,7.84,8.34,7.84a14.06,14.06,0,0,0,7.16-2.19,12.35,12.35,0,0,0,.23,1.29.52.52,0,0,0,.44.28l3.88,0a.5.5,0,0,0,.5-.51h0V105.14a.52.52,0,0,0-.5-.51Zm16.43-.72a11.31,11.31,0,0,0-5.74,1.53V94.71a.5.5,0,0,0-.5-.5h-6.07a.5.5,0,0,0-.5.5h0v31.7a.5.5,0,0,0,.5.5h4.22a.51.51,0,0,0,.44-.27,10.39,10.39,0,0,0,.25-1.46,10.87,10.87,0,0,0,7.19,2.35c5.51,0,8.68-2.79,8.68-12.56s-5.06-11-8.47-11Zm-2.37,17.86a7.14,7.14,0,0,1-3.5-1v-10a8.09,8.09,0,0,1,3.11-1c2.16-.19,4.25.46,4.25,5.63,0,5.44-.94,6.52-3.86,6.43Zm-64-.12c-.26,0-.94.11-1.64.11-2.23,0-3-1-3-2.38v-8.91h4.55a.51.51,0,0,0,.5-.51h0v-4.88a.5.5,0,0,0-.5-.51H48.51v-6c0-.23-.12-.34-.38-.34h-6.2c-.23,0-.36.11-.36.34v6.2l-3.32.81a.5.5,0,0,0-.36.48V110a.5.5,0,0,0,.5.5h3.18v9.38c0,7,4.88,7.65,8.18,7.65a13.88,13.88,0,0,0,3.6-.59.49.49,0,0,0,.29-.46v-4.29a.51.51,0,0,0-.5-.5Z" />
</g>
</symbol>
<title>icons</title>
<g id="wordpress">
<path id="Fill-1" d="M9.1,64A54.92,54.92,0,0,0,40,113.41L13.85,41.65A54.64,54.64,0,0,0,9.1,64" style="fill:#21759b;fill-rule:evenodd"/>
<path id="Fill-3" d="M101.06,61.23c0-6.79-2.44-11.48-4.52-15.14-2.79-4.53-5.4-8.35-5.4-12.88,0-5,3.83-9.74,9.22-9.74.24,0,.48,0,.71,0A54.89,54.89,0,0,0,18.13,33.84c1.28,0,2.5.07,3.53.07,5.74,0,14.63-.7,14.63-.7a2.27,2.27,0,0,1,.36,4.53s-3,.35-6.29.52l20,59.47,12-36L53.82,38.26c-3-.18-5.76-.52-5.76-.52-3-.18-2.61-4.7.34-4.53,0,0,9.07.7,14.47.7,5.74,0,14.63-.7,14.63-.7a2.27,2.27,0,0,1,.35,4.53s-3,.35-6.28.52l19.84,59L96.88,79c2.37-7.6,4.18-13,4.18-17.75" style="fill:#21759b;fill-rule:evenodd"/>
<path id="Fill-5" d="M65,68.8,48.49,116.67a54.87,54.87,0,0,0,33.74-.88,5.34,5.34,0,0,1-.39-.75Z" style="fill:#21759b;fill-rule:evenodd"/>
<path id="Fill-7" d="M112.18,37.66a43.19,43.19,0,0,1,.36,5.65A51.87,51.87,0,0,1,108.37,63L91.6,111.45a54.92,54.92,0,0,0,20.58-73.79" style="fill:#21759b;fill-rule:evenodd"/>
<path id="Fill-9" d="M64,125.07A61.07,61.07,0,1,1,125.06,64,61.14,61.14,0,0,1,64,125.07M64,0a64,64,0,1,0,64,64A64.07,64.07,0,0,0,64,0" style="fill:#21759b;fill-rule:evenodd"/>
</g>
</symbol>
<symbol viewBox="0 0 128 128" id="icons_Xd">
<title>icons</title>
<g id="xd">
<path id="class-hide" d="M103.25,6.93H24.69A19.4,19.4,0,0,0,5.33,26.29v75.42a19.4,19.4,0,0,0,19.36,19.36h78.62a19.32,19.32,0,0,0,19.3-19.42V26.29A19.36,19.36,0,0,0,103.25,6.93Z" style="fill:#2e001f"/>
<path d="M105.33,1.6H22.67A22.64,22.64,0,0,0,0,24.27v79.46A22.64,22.64,0,0,0,22.67,126.4h82.66A22.64,22.64,0,0,0,128,103.73V24.27A22.64,22.64,0,0,0,105.33,1.6Zm17.28,100.05a19.32,19.32,0,0,1-19.3,19.42H24.69A19.4,19.4,0,0,1,5.33,101.71V26.29A19.4,19.4,0,0,1,24.69,6.93h78.56a19.36,19.36,0,0,1,19.36,19.36Z" style="fill:#ff26be"/>
<path d="M50.61,60,65.55,88.69c.26.43.1.86-.32.86H56a1,1,0,0,1-1.12-.7c-3.42-7-6.88-14.08-10.46-21.65h-.1c-3.2,7.15-6.72,14.67-10.14,21.71a1,1,0,0,1-1,.58h-8.8c-.53,0-.58-.42-.32-.74L38.67,60.91,24.53,32.75a.43.43,0,0,1,.32-.75H34a.85.85,0,0,1,1,.59c3.36,7,6.77,14.29,10,21.38h.11c3.09-7,6.5-14.34,9.81-21.33.27-.43.43-.69,1-.69h8.59c.42,0,.58.32.32.74Zm17.55,8.69c0-12.42,8.27-22.13,21.39-22.13a22.91,22.91,0,0,1,2.77.11V32.53a.53.53,0,0,1,.53-.53h8.43c.43,0,.53.16.53.43v49a37.41,37.41,0,0,0,.27,5.22c0,.32-.11.43-.43.59A31.8,31.8,0,0,1,88,90.29C76.43,90.35,68.16,83.2,68.16,68.69ZM92.32,55a8.07,8.07,0,0,0-3.09-.53c-6.72,0-11.42,5.17-11.42,13.76,0,9.81,4.8,13.76,10.83,13.76a10,10,0,0,0,3.68-.59Z" style="fill:#ffd9f2"/>
</g>
</symbol>
<symbol viewBox="0 0 128 128" id="icons_jQuery">
<title>icons</title>
<g id="jquery">
<path d="M1.51,55.47c-2.11,3-1.84,6.94-.23,10.12a.72.72,0,0,0,.09.27s0,.09.1.14,0,0,0,.09.05.09.09.14l.14.28c.05,0,.05.09.09.13s.14.19.19.28,0,.09.09.14.18.23.28.37h0l0,0c.09.09.14.23.23.32s0,.1.09.1.14.18.23.27l.1.09a1.12,1.12,0,0,0,.32.33h0a1.93,1.93,0,0,0,.32.32l.09.09.23.23.09.09a2.45,2.45,0,0,1,.33.32h0l0,.05a3.19,3.19,0,0,0,.32.28s.1,0,.14.09.19.14.28.18.09,0,.14.09a.89.89,0,0,0,.27.19l.09.09h0a2.68,2.68,0,0,0,.28.18s.09,0,.13.1l.42.27s.09,0,.14,0,.23.14.32.18.14.05.18.09.14.1.23.14a0,0,0,0,1,0,0s0,0,.09,0,.23.14.37.19,0,0,.09,0,.28.14.41.19.05,0,.1,0L9,72.3h.05c.13,0,.32.09.46.14s.09,0,.09,0l.46.13c10.12,1.84,13.06-6.07,13.06-6.07-2.48,3.22-6.85,4-11,3.13l-.46-.14s-.09,0-.09,0l-.46-.14a0,0,0,0,1-.05,0l-.41-.14a.14.14,0,0,1-.09,0c-.14,0-.28-.14-.42-.19s0,0-.09,0a1.3,1.3,0,0,1-.37-.19s0,0-.09,0l-.27-.14s-.14,0-.19-.09l-.32-.19a.16.16,0,0,0-.09,0l-.42-.28s-.09,0-.13-.09-.23-.14-.33-.18l-.09-.1a.92.92,0,0,1-.27-.23s-.1,0-.14-.09-.19-.14-.28-.18-.09,0-.14-.09-.23-.19-.32-.28,0,0,0,0l-.33-.32-.09-.09c-.09-.09-.18-.14-.23-.23l-.09-.09a1.93,1.93,0,0,0-.32-.32h0c-.09-.1-.19-.23-.32-.37l-.1-.09a3.11,3.11,0,0,0-.23-.28l-.09-.09c-.14-.05-.23-.19-.32-.28-2.3-3.12-3.13-7.49-1.29-11" style="fill:#0769ad"/>
<path d="M8,52.94a7.22,7.22,0,0,0-.23,7.4,5.14,5.14,0,0,0,.69,1.11,5,5,0,0,0,.78,1c.09.14.23.23.32.37l.09.09a3.08,3.08,0,0,0,.37.33h0a2.92,2.92,0,0,0,.42.32l.09.09c.14.09.27.23.41.32h0c.05,0,.14.09.19.14s0,0,.09,0l.32.19s.05,0,.05,0l.27.14c.05,0,.05,0,.09,0s.14,0,.19.09h0c.14,0,.28.14.42.18s0,0,.09,0,.23.09.32.14.09,0,.14,0a.61.61,0,0,0,.32.1s.09,0,.14,0l.46.14c7.82,1.29,9.61-4.74,9.61-4.74-1.61,2.35-4.78,3.45-8.14,2.58L15.08,63s-.09,0-.14,0-.23,0-.32-.1-.09,0-.14,0-.23-.09-.32-.14,0,0-.09,0-.28-.13-.41-.18a.33.33,0,0,0-.19-.09s-.09,0-.14,0l-.27-.14s-.05,0-.05,0L12.69,62s0,0-.09,0-.14-.09-.19-.14a2.71,2.71,0,0,1-.41-.32l-.09-.09A9.42,9.42,0,0,1,8.73,56.8a7,7,0,0,1,.56-5.66" style="fill:#0769ad"/>
<path d="M13.47,51.05a4.75,4.75,0,0,0-.37,4.42,6,6,0,0,0,3.55,3.31s.13,0,.18,0,.05,0,.09,0,.19.05.28.09c4.32.83,5.47-2.2,5.79-2.66-1,1.47-2.76,1.84-4.87,1.33-.19-.05-.37-.09-.51-.14s-.41-.14-.6-.23A8,8,0,0,1,16,56.62c-1.89-1.43-3.09-4.19-1.84-6.4" style="fill:#0769ad"/>
<path d="M113.61,57.22l.19.73a.3.3,0,0,1-.28.37" style="fill:#333"/>
<path d="M100,56c0,.19-.09.46-.14.6l-1.52,7,1.57-7.36Z" style="fill:#333"/>
<path d="M55.19,60.67l-.82,2.94Z" style="fill:#333"/>
<path d="M113.8,58l-.42-1.84c-.32-1.33-1.28-1.93-3.45-1.93h-9.1c-.23,0-.42.09-.46.32L96.92,70.88a1.91,1.91,0,0,0,0,.46c0,.09.41.09.64.09h3.18a2.61,2.61,0,0,0,.69-.05c.14,0,.18-.37.23-.55l1.1-5.75,1.38-6.39a.49.49,0,0,1,.46-.37h9a.3.3,0,0,0,.23-.37" style="fill:#333"/>
<path d="M126.63,51.28h-4a.9.9,0,0,0-.6.42L115,62c-.13.18-.27.18-.32,0l-.5-2.25a.57.57,0,0,0-.46-.37H109.2a.28.28,0,0,0-.28.37l2,7.08a2.3,2.3,0,0,1,0,.74l-1,3.59c0,.18.09.27.28.27h4.46c.23,0,.41,0,.46-.27l1-3.64a2.17,2.17,0,0,1,.33-.64l11.45-15.18c.14-.18.09-.37-.09-.37Z" style="fill:#333"/>
<path d="M79.62,54.18H75.53c-.23,0-.42.09-.46.28l-1.34,6.3-1.33,6c-.05.19-.23.19-.46.19H69.27c-2.67,0-2.35-1.66-1.79-4.19,0,0,1.7-8.32,1.7-8.32,0-.19-.09-.28-.32-.28H65a.42.42,0,0,0-.46.28L63,62.78c-.78,4.51-.78,8.46,4.41,8.6h8.24a.43.43,0,0,0,.46-.27l1.79-8.37,1.75-8.38S79.71,54.18,79.62,54.18Z" style="fill:#333"/>
<path d="M39.05,54.18H34.68c-.23,0-.42,0-.46.28l-.78,3.4a.3.3,0,0,0,.32.37h4.18a.49.49,0,0,0,.46-.42l.74-3.45S39.23,54.18,39.05,54.18Z" style="fill:#333"/>
<path d="M33.48,59.33a.51.51,0,0,0-.46.37l-.6,2.62-1.33,6s-.69,3.17-.78,3.4c0,0-.6,2.3-2,2.21-.64,0-1.38-.19-1.38-.19h0c-.41-.13-.41.28-.46.51L25.62,78a.35.35,0,0,0,.27.41,27.39,27.39,0,0,0,3.22.28h.23c3.27,0,5-1.94,6.12-7.18l1.29-6.12,1.19-5.65a.34.34,0,0,0-.27-.42" style="fill:#333"/>
<path d="M89.92,54.13c-7.36,0-9.1,4.56-10.07,9s-.87,8.23,6.72,8.23h6.94A.52.52,0,0,0,94,71l.74-2.9c0-.18-.09-.28-.32-.28H87.53c-2.48,0-3.36-.78-3.26-2.48,0-.18.23-.69.41-.69H95.21c.46,0,.46-.28.46-.28,1.15-4.78,1.2-10.21-5.75-10.21m1.94,7.23c0,.23-.74.18-.74.18l-5.7,0c-.19,0-.28-.27-.28-.46,0,0,0-.23,0-.27.46-1.52,1.74-2.39,3.86-2.39,2.35,0,2.85,1.15,2.85,2.48" style="fill:#333"/>
<path d="M58.18,66.64a48.79,48.79,0,0,0,2.53-7.86c.65-3.86-1.28-9.48-8.78-9.48S41.3,54.64,40.06,60.48s.37,11,7.77,10.9H59.1a.48.48,0,0,0,.46-.37l1-3.63a.3.3,0,0,0-.28-.37H58.41a.26.26,0,0,1-.27-.27s0,0,0-.1m-3.86-3-.83,2.9a.51.51,0,0,1-.5.32H48.62c-3.32,0-4.14-2.58-3.32-6.39s2.4-6.31,5.66-6.58c4.46-.32,5.38,2.8,4.28,6.44Z" style="fill:#333"/>
</g>
</symbol>
<symbol viewBox="0 0 128 128" id="icons_Node">
    <g id="node">
        <path fill="#689F63" d="M63.3,103.2c-0.4,0-0.8-0.1-1.2-0.3l-3.9-2.3c-0.6-0.3-0.3-0.4-0.1-0.5c0.8-0.3,0.9-0.3,1.7-0.8 c0.1,0,0.2,0,0.3,0l3,1.8c0.1,0.1,0.3,0.1,0.4,0L75,94.4c0.1-0.1,0.2-0.2,0.2-0.3V80.7c0-0.1-0.1-0.3-0.2-0.3l-11.6-6.7 c-0.1-0.1-0.2-0.1-0.4,0l-11.6,6.7c-0.1,0.1-0.2,0.2-0.2,0.3v13.3c0,0.1,0.1,0.2,0.2,0.3l3.2,1.8c1.7,0.9,2.8-0.2,2.8-1.2V81.9 c0-0.2,0.1-0.3,0.3-0.3h1.5c0.2,0,0.3,0.1,0.3,0.3v13.2c0,2.3-1.2,3.6-3.4,3.6c-0.7,0-1.2,0-2.7-0.7l-3-1.7 c-0.7-0.4-1.2-1.2-1.2-2.1V80.7c0-0.9,0.5-1.7,1.2-2.1L62.1,72c0.7-0.4,1.7-0.4,2.4,0L76,78.6c0.7,0.4,1.2,1.2,1.2,2.1v13.3 c0,0.9-0.5,1.7-1.2,2.1l-11.6,6.7C64.1,103.1,63.7,103.2,63.3,103.2"/>
        <path fill="#689F63" d="M66.8,94c-5.1,0-6.1-2.3-6.1-4.3c0-0.2,0.1-0.3,0.3-0.3h1.5c0.2,0,0.3,0.1,0.3,0.3c0.2,1.5,0.9,2.3,4,2.3 c2.4,0,3.5-0.6,3.5-1.8c0-0.7-0.3-1.3-4.1-1.7c-3.2-0.3-5.1-1-5.1-3.5c0-2.3,2-3.7,5.3-3.7c3.7,0,5.5,1.3,5.8,4c0,0.1,0,0.2-0.1,0.3 c-0.1,0.1-0.2,0.1-0.2,0.1h-1.5c-0.2,0-0.3-0.1-0.3-0.3c-0.4-1.6-1.2-2.1-3.6-2.1c-2.7,0-3,0.9-3,1.6c0,0.8,0.4,1.1,4,1.6 c3.6,0.5,5.2,1.1,5.2,3.6C72.6,92.6,70.5,94,66.8,94 M80.9,79.9h0.4c0.3,0,0.4-0.2,0.4-0.4c0-0.3-0.2-0.3-0.4-0.3h-0.4L80.9,79.9z M80.4,78.8h0.9c0.3,0,0.9,0,0.9,0.7c0,0.5-0.3,0.6-0.5,0.6c0.3,0,0.4,0.2,0.4,0.6c0,0.2,0.1,0.5,0.1,0.7h-0.5 c0-0.1-0.1-0.8-0.1-0.8c0-0.1-0.1-0.2-0.3-0.2h-0.4v1h-0.5V78.8z M79.4,80c0,1,0.8,1.9,1.9,1.9c1,0,1.9-0.9,1.9-1.9 c0-1-0.8-1.9-1.9-1.9C80.2,78.2,79.4,79,79.4,80 M83.5,80c0,1.2-1,2.2-2.2,2.2c-1.2,0-2.2-1-2.2-2.2c0-1.3,1-2.2,2.2-2.2 C82.5,77.8,83.5,78.8,83.5,80"/>
        <path fill-rule="evenodd" clip-rule="evenodd" fill="#333333" d="M27.5,51c0-0.5-0.3-1-0.7-1.3l-12.3-7.1c-0.2-0.1-0.4-0.2-0.7-0.2 h-0.1c-0.2,0-0.5,0.1-0.7,0.2L0.7,49.7C0.3,50,0,50.5,0,51l0,19c0,0.3,0.1,0.5,0.4,0.6c0.2,0.1,0.5,0.1,0.7,0l7.3-4.2 c0.5-0.3,0.7-0.8,0.7-1.3v-8.9c0-0.5,0.3-1,0.7-1.3l3.1-1.8c0.2-0.1,0.5-0.2,0.7-0.2c0.3,0,0.5,0.1,0.7,0.2l3.1,1.8 c0.5,0.3,0.7,0.8,0.7,1.3v8.9c0,0.5,0.3,1,0.7,1.3l7.3,4.2c0.2,0.1,0.5,0.1,0.7,0c0.2-0.1,0.4-0.4,0.4-0.6L27.5,51z M85.3,60.9 c0,0.1-0.1,0.3-0.2,0.3l-4.2,2.4c-0.1,0.1-0.3,0.1-0.4,0l-4.2-2.4c-0.1-0.1-0.2-0.2-0.2-0.3V56c0-0.1,0.1-0.3,0.2-0.3l4.2-2.4 c0.1-0.1,0.3-0.1,0.4,0l4.2,2.4c0.1,0.1,0.2,0.2,0.2,0.3L85.3,60.9z M86.4,24.9c-0.2-0.1-0.5-0.1-0.7,0c-0.2,0.1-0.4,0.4-0.4,0.6 v18.8c0,0.2-0.1,0.4-0.3,0.4c-0.2,0.1-0.4,0.1-0.5,0L81.5,43c-0.5-0.3-1-0.3-1.5,0l-12.3,7.1c-0.5,0.3-0.7,0.8-0.7,1.3v14.2 c0,0.5,0.3,1,0.7,1.3L80,73.9c0.5,0.3,1,0.3,1.5,0l12.3-7.1c0.5-0.3,0.7-0.8,0.7-1.3V30.3c0-0.5-0.3-1-0.8-1.3L86.4,24.9z M127.3,55.9c0.5-0.3,0.7-0.8,0.7-1.3v-3.4c0-0.5-0.3-1-0.7-1.3l-12.2-7.1c-0.5-0.3-1-0.3-1.5,0l-12.3,7.1c-0.5,0.3-0.7,0.8-0.7,1.3 v14.1c0,0.5,0.3,1,0.7,1.3l12.2,6.9c0.4,0.3,1,0.3,1.5,0l7.4-4.1c0.2-0.1,0.4-0.4,0.4-0.6c0-0.3-0.1-0.5-0.4-0.6L110,61.1 c-0.2-0.1-0.4-0.4-0.4-0.6V56c0-0.3,0.1-0.5,0.4-0.6l3.8-2.2c0.2-0.1,0.5-0.1,0.7,0l3.8,2.2c0.2,0.1,0.4,0.4,0.4,0.6v3.5 c0,0.3,0.1,0.5,0.4,0.6c0.2,0.1,0.5,0.1,0.7,0L127.3,55.9z"/>
        <path fill-rule="evenodd" clip-rule="evenodd" fill="#689F63" d="M114.2,55.2c0.1-0.1,0.2-0.1,0.3,0l2.4,1.4 c0.1,0.1,0.1,0.1,0.1,0.2v2.7c0,0.1-0.1,0.2-0.1,0.2l-2.4,1.4c-0.1,0.1-0.2,0.1-0.3,0l-2.4-1.4c-0.1-0.1-0.1-0.1-0.1-0.2v-2.7 c0-0.1,0.1-0.2,0.1-0.2L114.2,55.2z"/>
        <g>
            <defs>
                <path id="SVGID_1_" d="M46.5,42.9l-12.2,7c-0.5,0.3-0.7,0.7-0.7,1.3v14.1c0,0.5,0.3,1,0.7,1.3l12.2,7c0.5,0.3,1,0.3,1.5,0l12.2-7
                c0.5-0.3,0.7-0.7,0.7-1.3V51.2c0-0.5-0.3-1-0.7-1.3l-12.2-7c-0.2-0.1-0.5-0.2-0.7-0.2C47,42.7,46.7,42.8,46.5,42.9"/>
            </defs>
            <clipPath id="SVGID_2_">
                <use xlink:href="#SVGID_1_" overflow="visible"/>
            </clipPath>
            <g transform="translate(-78.306 -164.016)" clip-path="url(#SVGID_2_)">
                <linearGradient id="SVGID_3_" gradientUnits="userSpaceOnUse" x1="265.6328" y1="449.588" x2="265.9798" y2="449.588" gradientTransform="matrix(-50.7531 103.536 103.536 50.7531 -32932.4883 -50116.1992)">
                    <stop offset="0.3" style="stop-color:#3E863D"/>
                    <stop offset="0.5" style="stop-color:#55934F"/>
                    <stop offset="0.8" style="stop-color:#5AAD45"/>
                </linearGradient>
                <path fill="url(#SVGID_3_)" d="M151.5,212.8l-34.4-16.8l-17.6,35.9l34.3,16.8L151.5,212.8z"/>
            </g>
        </g>
        <g>
            <defs>
                <path id="SVGID_4_" d="M33.9,66.2c0.1,0.2,0.3,0.3,0.4,0.4l10.5,6l1.7,1c0.3,0.2,0.6,0.2,0.8,0.2c0.1,0,0.2,0,0.3-0.1l12.9-23.5
                c-0.1-0.1-0.2-0.2-0.3-0.3l-8-4.6L48,42.9c-0.1-0.1-0.2-0.1-0.4-0.2L33.9,66.2z"/>
            </defs>
            <clipPath id="SVGID_5_">
                <use xlink:href="#SVGID_4_" overflow="visible"/>
            </clipPath>
            <g transform="translate(-78.306 -164.016)" clip-path="url(#SVGID_5_)">

                <linearGradient id="SVGID_6_" gradientUnits="userSpaceOnUse" x1="264.2007" y1="454.9891" x2="264.426" y2="454.9891" gradientTransform="matrix(142.4074 -105.2221 -105.2221 -142.4074 10360.2568 92827.7266)">
                    <stop offset="0.57" style="stop-color:#3E863D"/>
                    <stop offset="0.72" style="stop-color:#619857"/>
                    <stop offset="1" style="stop-color:#76AC64"/>
                </linearGradient>
                <path fill="url(#SVGID_6_)" d="M97.3,217.8l24.3,32.8l32.1-23.7l-24.3-32.8L97.3,217.8z"/>
            </g>
        </g>
        <g>
            <defs>
                <path id="SVGID_7_" d="M47.1,42.7c-0.2,0-0.4,0.1-0.6,0.2l-12.2,7l13.1,23.9c0.2,0,0.4-0.1,0.5-0.2l12.2-7c0.4-0.2,0.6-0.6,0.7-1
                L47.5,42.7c-0.1,0-0.2,0-0.3,0C47.2,42.7,47.1,42.7,47.1,42.7"/>
            </defs>
            <clipPath id="SVGID_8_">
                <use xlink:href="#SVGID_7_" overflow="visible"/>
            </clipPath>
            <g transform="translate(-78.306 -164.016)" clip-path="url(#SVGID_8_)">

                <linearGradient id="SVGID_9_" gradientUnits="userSpaceOnUse" x1="262.9548" y1="454.3165" x2="263.1591" y2="454.3165" gradientTransform="matrix(129.8891 0 0 -129.8891 -34042.3125 59233.0391)">
                    <stop offset="0.16" style="stop-color:#6BBF47"/>
                    <stop offset="0.38" style="stop-color:#79B461"/>
                    <stop offset="0.47" style="stop-color:#75AC64"/>
                    <stop offset="0.7" style="stop-color:#659E5A"/>
                    <stop offset="0.9" style="stop-color:#3E863D"/>
                </linearGradient>
                <path fill="url(#SVGID_9_)" d="M112.7,206.7v31.1h26.5v-31.1L112.7,206.7z"/>
            </g>
        </g>
    </g>
    <g id="gatsby">
        <circle fill="#639" cx="64" cy="64" r="64"/>
        <path fill="#fff" d="M28.3,99.7c-9.6-9.6-14.6-22.4-14.6-34.7l49.8,49.4C50.7,113.8,37.9,109.3,28.3,99.7z M75,112.9L15.1,53 c5-22.4,25.1-39.3,48.9-39.3c16.9,0,31.5,8.2,40.7,20.6l-6.9,5.9C90.1,29.7,77.7,22.9,64,22.9c-17.8,0-32.9,11.4-38.9,27.4 l52.6,52.6c13.3-4.6,23.3-16,26.5-29.7H82.3V64h32C114.3,87.8,97.4,107.9,75,112.9z"/>
    </g>

</symbol>
</svg>